<?xml version="1.0" standalone="no"?>
<!DOCTYPE svg PUBLIC "-//W3C//DTD SVG 1.1//EN" "http://www.w3.org/Graphics/SVG/1.1/DTD/svg11.dtd" >
<svg>
<metadata>
Created by FontForge 20110222 at Wed Jun  4 16:12:44 2014
 By deploy user
Copyright (c) 1988, 1990, 1993, 2003 Linotype Library GmbH, www.linotype.com. All rights reserved. Copyright (c) 1988, 1990, 1993 Adobe Systems Incorporated. All Rights Reserved.
</metadata>
<defs>
<font id="HelveticaNeueLTPro-LtCnO" horiz-adv-x="444" >
  <font-face 
    font-family="HelveticaNeueLT Pro 47 LtCn"
    font-weight="300"
    font-style="italic"
    font-stretch="normal"
    units-per-em="1000"
    panose-1="2 11 4 6 2 2 2 3 2 4"
    ascent="714"
    descent="-286"
    x-height="531"
    cap-height="714"
    bbox="-173 -214 1064 926"
    underline-thickness="50"
    underline-position="-50"
    slope="-12"
    unicode-range="U+000D-FB02"
  />
<missing-glyph horiz-adv-x="512" 
d="M222 117h56v67h-56v-67zM225 234h46q0 52 6 72q6 19 43 52q37 34 50 60t13 60q0 59 -35 95t-89 36q-56 0 -92 -34t-43 -103l50 -8q11 95 82 95q31 0 53.5 -24.5t22.5 -60.5q0 -20 -9.5 -37t-40.5 -46q-31 -31 -46 -59q-13 -25 -13 -81zM462 50h-412v617h412v-617z
M512 718h-512v-718h512v718z" />
    <glyph glyph-name="IJ" unicode="IJ" horiz-adv-x="602" 
d="M60 0l148 714h64l-148 -714h-64zM251 180l6 29h64l-4 -17q-17 -73 -2 -111.5t66 -38.5q55 0 88.5 31.5t50.5 112.5l110 528h64l-111 -535q-42 -191 -210 -191q-80 0 -111.5 45.5t-10.5 146.5z" />
    <glyph glyph-name="ij" unicode="ij" horiz-adv-x="354" 
d="M189 612l21 102h60l-21 -102h-60zM62 0l110 531h60l-110 -531h-60zM359 612l21 102h60l-21 -102h-60zM223 -42l119 573h60l-123 -593q-25 -122 -140 -122q-19 0 -32 3l10 50q21 -3 23 -3q33 0 52.5 19.5t30.5 72.5z" />
    <glyph glyph-name="napostrophe" unicode="&#x22;n" horiz-adv-x="462" 
d="M76 0l110 531h54l-15 -74h2q62 86 153 86q64 0 93 -35t14 -107l-83 -401h-60l79 384q24 109 -68 109q-53 0 -92.5 -37t-52.5 -99l-74 -357h-60zM184 714l19 92h65l-17 -84q-13 -65 -80 -69l5 23q12 4 17 7t10 10t8 21h-27z" />
    <glyph glyph-name="fi" unicode="fi" horiz-adv-x="426" 
d="M80 0l100 481h-73l10 50h73l13 63q14 64 43.5 96t99.5 32q26 0 37 -3l-10 -50q-13 3 -29 3q-34 0 -53 -17t-28 -61l-13 -63h94l-10 -50h-94l-100 -481h-60zM431 612l21 102h60l-21 -102h-60zM304 0l110 531h60l-110 -531h-60z" />
    <glyph glyph-name="fl" unicode="fl" horiz-adv-x="426" 
d="M80 0l100 481h-73l10 50h73l13 63q14 64 43.5 96t99.5 32q26 0 37 -3l-10 -50q-13 3 -29 3q-34 0 -53 -17t-28 -61l-13 -63h94l-10 -50h-94l-100 -481h-60zM304 0l148 714h60l-148 -714h-60z" />
    <glyph glyph-name=".notdef" horiz-adv-x="512" 
d="M222 117h56v67h-56v-67zM225 234h46q0 52 6 72q6 19 43 52q37 34 50 60t13 60q0 59 -35 95t-89 36q-56 0 -92 -34t-43 -103l50 -8q11 95 82 95q31 0 53.5 -24.5t22.5 -60.5q0 -20 -9.5 -37t-40.5 -46q-31 -31 -46 -59q-13 -25 -13 -81zM462 50h-412v617h412v-617z
M512 718h-512v-718h512v718z" />
    <glyph glyph-name=".null" horiz-adv-x="500" 
 />
    <glyph glyph-name=".null" horiz-adv-x="500" 
 />
    <glyph glyph-name="nonmarkingreturn" horiz-adv-x="333" 
 />
    <glyph glyph-name="CR" unicode="&#xd;" horiz-adv-x="0" 
 />
    <glyph glyph-name="space" unicode=" " horiz-adv-x="240" 
 />
    <glyph glyph-name="exclam" unicode="!" horiz-adv-x="240" 
d="M86 0l21 102h68l-21 -102h-68zM187 488l47 226h68l-47 -226l-75 -302h-44z" />
    <glyph glyph-name="quotedbl" unicode="&#x22;" horiz-adv-x="352" 
d="M319 474l50 240h60l-50 -240h-60zM169 474l50 240h60l-50 -240h-60z" />
    <glyph glyph-name="numbersign" unicode="#" horiz-adv-x="480" 
d="M49 226l10 44h116l52 156h-110l9 44h116l77 226h50l-77 -226h122l77 226h50l-77 -226h110l-9 -44h-116l-52 -156h110l-10 -44h-116l-76 -226h-50l76 226h-122l-76 -226h-50l76 226h-110zM277 426l-52 -156h122l52 156h-122z" />
    <glyph glyph-name="dollar" unicode="$" horiz-adv-x="480" 
d="M69 195l4 20h64l-5 -26q-15 -64 9.5 -103t85.5 -44l61 294q-19 6 -31 10.5t-29 12t-27.5 15t-23 18t-18.5 23.5t-11 29t-4.5 36t5.5 44q17 79 74 128t143 56l14 71h44l-14 -71q85 -7 116 -54t13 -136h-64q25 124 -77 136l-56 -273q22 -8 28.5 -10.5t26.5 -10.5t27 -12.5
t22.5 -14.5t21 -18.5t14.5 -22t10.5 -27.5t1.5 -33t-4 -40q-20 -92 -80 -144t-150 -60l-17 -83h-44l17 83q-187 11 -147 207zM329 321l-58 -279q59 6 99 41t54 99q13 57 -13 87t-82 52zM301 396l53 258q-55 -6 -92 -40t-47 -84q-11 -55 12 -85t74 -49z" />
    <glyph glyph-name="percent" unicode="%" horiz-adv-x="722" 
d="M452 172q21 103 61 143.5t104 40.5t86 -40.5t1 -143.5t-61 -143.5t-103 -40.5q-64 0 -86.5 40.5t-1.5 143.5zM161 524q23 103 62 143.5t103 40.5t87 -40.5t0 -143.5q-21 -103 -61 -143.5t-103 -40.5q-64 0 -86.5 40.5t-1.5 143.5zM506 172q-27 -140 43 -140q74 0 101 140
q14 80 3 110t-46 30q-73 0 -101 -140zM179 -12l457 720h50l-457 -720h-50zM215 524q-27 -140 43 -140q74 0 101 140q28 140 -42 140q-74 0 -102 -140z" />
    <glyph glyph-name="ampersand" unicode="&#x26;" horiz-adv-x="537" 
d="M408 132l-118 234q-149 -89 -166 -182q-14 -62 20 -102t95 -40q45 0 92.5 25t76.5 65zM283 584q-11 -54 37 -145q111 72 126 145q7 35 -11 57.5t-53 22.5t-63.5 -23t-35.5 -57zM475 0l-45 87q-87 -99 -211 -99q-90 0 -133.5 54.5t-27.5 134.5q22 103 142 184l68 45
q-30 56 -41.5 96.5t-3.5 79.5q11 62 61 97t112 35q63 0 92.5 -36t17.5 -96q-11 -48 -47 -90.5t-118 -93.5l109 -216q34 56 54 135h60q-18 -94 -88 -185l67 -132h-68z" />
    <glyph glyph-name="quotesingle" unicode="'" horiz-adv-x="240" 
d="M188 474l50 240h60l-50 -240h-60z" />
    <glyph glyph-name="parenleft" unicode="(" horiz-adv-x="222" 
d="M335 714h43q-159 -204 -209 -449q-51 -244 22 -449h-43q-87 218 -39 449q46 229 226 449z" />
    <glyph glyph-name="parenright" unicode=")" horiz-adv-x="222" 
d="M-3 -184h-43q157 201 209 449q51 250 -23 449h43q87 -215 40 -449q-48 -232 -226 -449z" />
    <glyph glyph-name="asterisk" unicode="*" horiz-adv-x="334" 
d="M293 714h44l-23 -111l113 34l4 -42l-112 -34l46 -90l-41 -26l-46 90l-84 -90l-31 26l84 90l-98 34l22 42l99 -34z" />
    <glyph glyph-name="plus" unicode="+" horiz-adv-x="600" 
d="M275 0l47 228h-228l10 50h228l48 228h50l-48 -228h228l-10 -50h-228l-47 -228h-50z" />
    <glyph glyph-name="comma" unicode="," horiz-adv-x="240" 
d="M86 0l21 102h68l-21 -102q-12 -53 -34.5 -87.5t-68.5 -50.5l8 40q38 21 56 98h-29z" />
    <glyph glyph-name="hyphen" unicode="-" horiz-adv-x="333" 
d="M122 311h217l-11 -54h-217z" />
    <glyph glyph-name="period" unicode="." horiz-adv-x="240" 
d="M86 0l21 102h68l-21 -102h-68z" />
    <glyph glyph-name="slash" unicode="/" horiz-adv-x="278" 
d="M384 726h54l-397 -738h-53z" />
    <glyph glyph-name="zero" unicode="0" horiz-adv-x="480" 
d="M113 348q17 83 38.5 144.5t53.5 112.5t77.5 77t104.5 26q77 0 113 -47t33.5 -127t-22.5 -186q-18 -84 -39.5 -145t-53 -112t-77 -77t-104.5 -26q-77 0 -113.5 47t-34 127t23.5 186zM177 348q-35 -170 -19 -240t89 -70q74 0 119 70t81 240q35 170 18.5 240t-89.5 70
t-118 -70t-81 -240z" />
    <glyph glyph-name="one" unicode="1" horiz-adv-x="480" 
d="M230 0l112 542h-162l9 44q170 1 202 122h46l-147 -708h-60z" />
    <glyph glyph-name="two" unicode="2" horiz-adv-x="480" 
d="M212 486h-64q24 105 86 163.5t160 58.5q78 0 119.5 -48t23.5 -144q-15 -67 -50 -115t-113 -103l-90 -63q-69 -50 -105.5 -89t-55.5 -92h324l-11 -54h-392q17 84 66.5 147t137.5 126l90 64q63 44 93.5 84.5t40.5 91.5q15 69 -12 107t-83 38q-125 0 -165 -172z" />
    <glyph glyph-name="three" unicode="3" horiz-adv-x="480" 
d="M258 343l10 50h33q64 0 106 34.5t56 97.5q13 63 -10 98t-80 35q-56 0 -97 -36.5t-58 -109.5h-64q18 91 78 143.5t152 52.5q82 0 121.5 -47t22.5 -128q-12 -61 -50 -103.5t-97 -56.5v-2q60 -9 87 -55t13 -113q-21 -98 -86 -156.5t-162 -58.5q-93 0 -133 51t-23 150h64
q-13 -66 12 -108.5t90 -42.5q60 0 108 39.5t65 123.5q14 68 -15.5 105t-95.5 37h-47z" />
    <glyph glyph-name="four" unicode="4" horiz-adv-x="480" 
d="M135 236h219l76 370h-2zM305 0l37 182h-273l13 60l370 466h60l-98 -472h83l-12 -54h-83l-37 -182h-60z" />
    <glyph glyph-name="five" unicode="5" horiz-adv-x="480" 
d="M240 696h310l-11 -54h-262l-82 -247l1 -2q54 72 152 72q85 0 123.5 -60t15.5 -174q-23 -110 -91.5 -176.5t-169.5 -66.5q-85 0 -126 51t-22 142h64q-13 -63 13 -103t88 -40q65 0 113 52.5t69 150.5q14 79 -10 126.5t-92 47.5q-93 0 -139 -82h-60z" />
    <glyph glyph-name="six" unicode="6" horiz-adv-x="480" 
d="M159 219q-7 -32 -7 -67q0 -51 25 -82.5t76 -31.5q69 0 111.5 52t58.5 129q7 32 7 66q0 115 -101 115q-67 0 -110.5 -52.5t-59.5 -128.5zM539 542h-64q9 53 -13.5 84.5t-74.5 31.5q-75 0 -127 -75t-89 -247l2 -2q62 116 176 116q90 0 125.5 -59.5t14.5 -160.5
q-23 -107 -86 -174.5t-161 -67.5q-78 0 -116 39t-40 114.5t20 187.5q39 187 106.5 283t188.5 96q81 0 116 -45.5t22 -120.5z" />
    <glyph glyph-name="seven" unicode="7" horiz-adv-x="480" 
d="M174 642l11 54h398l-11 -54q-136 -132 -240 -310.5t-147 -331.5h-68q38 146 151.5 332t243.5 310h-338z" />
    <glyph glyph-name="eight" unicode="8" horiz-adv-x="480" 
d="M236 530q-12 -59 9.5 -93t77.5 -34t92.5 34t48.5 93t-10 93.5t-78 34.5t-92 -34.5t-48 -93.5zM82 200q13 66 57.5 117.5t106.5 57.5l1 2q-47 14 -66.5 58t-8.5 98q17 84 75.5 129.5t139.5 45.5t120 -45t21 -130q-11 -54 -48 -98t-91 -58l-1 -2q61 -6 83 -56.5t9 -118.5
q-22 -99 -87 -155.5t-156 -56.5t-133.5 56t-21.5 156zM145 195q-15 -67 11 -112t91 -45t109 44.5t59 112.5t-11.5 113t-90.5 45q-65 0 -109 -44.5t-59 -113.5z" />
    <glyph glyph-name="nine" unicode="9" horiz-adv-x="480" 
d="M201 477q-7 -32 -7 -67q0 -51 24.5 -82.5t76.5 -31.5q67 0 110.5 52.5t59.5 128.5t-6 128.5t-89 52.5q-68 0 -110.5 -52t-58.5 -129zM85 154h64q-9 -53 13 -84.5t74 -31.5q75 0 127 75t89 247l-1 2q-62 -116 -176 -116q-90 0 -126 59.5t-15 160.5q21 106 86 174t162 68
q78 0 116 -39t40 -114.5t-20 -187.5q-39 -187 -106.5 -283t-188.5 -96q-82 0 -117.5 45.5t-20.5 120.5z" />
    <glyph glyph-name="colon" unicode=":" horiz-adv-x="240" 
d="M86 0l21 102h68l-21 -102h-68zM168 399l22 102h68l-22 -102h-68z" />
    <glyph glyph-name="semicolon" unicode=";" horiz-adv-x="240" 
d="M168 399l22 102h68l-22 -102h-68zM86 0l21 102h68l-21 -102q-12 -53 -34.5 -87.5t-68.5 -50.5l8 40q38 21 56 98h-29z" />
    <glyph glyph-name="semicolon" unicode="&#x37e;" horiz-adv-x="240" 
d="M168 399l22 102h68l-22 -102h-68zM86 0l21 102h68l-21 -102q-12 -53 -34.5 -87.5t-68.5 -50.5l8 40q38 21 56 98h-29z" />
    <glyph glyph-name="less" unicode="&#x3c;" horiz-adv-x="600" 
d="M93 226l12 54l554 234l-11 -54l-489 -207l403 -207l-11 -54z" />
    <glyph glyph-name="equal" unicode="=" horiz-adv-x="600" 
d="M74 131l10 50h506l-10 -50h-506zM114 325l10 50h506l-10 -50h-506z" />
    <glyph glyph-name="greater" unicode="&#x3e;" horiz-adv-x="600" 
d="M45 -8l11 54l489 207l-403 207l11 54l458 -234l-12 -54z" />
    <glyph glyph-name="question" unicode="?" horiz-adv-x="426" 
d="M164 0l21 102h68l-21 -102h-68zM266 185h-60l7 35q12 54 32.5 87.5t67.5 72.5l51 45q63 55 78 127q11 55 -12.5 89.5t-73.5 34.5q-127 0 -163 -168h-64q21 98 81 158t152 60q83 0 121.5 -48t22.5 -127q-18 -87 -98 -157l-52 -46q-38 -32 -56.5 -61.5t-27.5 -73.5z" />
    <glyph glyph-name="at" unicode="@" horiz-adv-x="800" 
d="M649 492l39 66h57l-164 -294q-22 -41 -25 -59q-4 -25 22 -25q65 0 138.5 80.5t89.5 161.5q23 114 -50.5 187t-194.5 73q-144 0 -261.5 -96.5t-144.5 -228.5q-28 -135 50.5 -230t220.5 -95q82 0 166.5 37.5t137.5 100.5h60q-68 -84 -169.5 -133t-203.5 -49
q-108 0 -187.5 50t-112.5 134.5t-12 184.5t90.5 185t169.5 134.5t205 49.5q148 0 231 -87.5t55 -219.5q-23 -112 -117 -197.5t-179 -85.5q-31 0 -46.5 17t-7.5 51h-2q-44 -36 -79.5 -52t-75.5 -16q-60 0 -88 39.5t-14 107.5q23 110 112.5 201t192.5 91q80 0 95 -83h2z
M302 288q-20 -102 65 -102q75 0 147.5 83t88.5 160q10 49 -5.5 72.5t-60.5 23.5q-75 0 -147 -79t-88 -158z" />
    <glyph glyph-name="A" unicode="A" horiz-adv-x="500" 
d="M-1 0l359 714h80l63 -714h-68l-15 208h-250l-101 -208h-68zM193 262h222l-26 402h-2z" />
    <glyph glyph-name="B" unicode="B" horiz-adv-x="500" 
d="M56 0l148 714h197q190 0 155 -179q-13 -55 -50.5 -98t-91.5 -57l-1 -2q62 -12 86.5 -59.5t9.5 -118.5q-20 -94 -87.5 -147t-169.5 -53h-196zM191 346l-60 -292h119q165 0 195 146t-135 146h-119zM257 660l-54 -260h101q158 0 187 130q14 70 -15.5 100t-106.5 30h-112z
" />
    <glyph glyph-name="C" unicode="C" horiz-adv-x="519" 
d="M476 242h64q-32 -123 -100 -188.5t-165 -65.5q-227 0 -151 369t304 369q103 0 141.5 -62.5t18.5 -157.5h-64q15 75 -12.5 120.5t-94.5 45.5q-80 0 -137 -74t-92 -241q-25 -115 -18.5 -185t35 -100t81.5 -30q67 0 116 52.5t74 147.5z" />
    <glyph glyph-name="D" unicode="D" horiz-adv-x="537" 
d="M257 660l-126 -606h104q108 0 167.5 66t94.5 236q26 116 17 183.5t-45 94t-108 26.5h-104zM56 0l148 714h172q102 0 151.5 -41t53.5 -120t-20 -196q-38 -186 -111.5 -271.5t-221.5 -85.5h-172z" />
    <glyph glyph-name="E" unicode="E" 
d="M56 0l148 714h354l-11 -54h-290l-54 -260h271l-12 -54h-271l-60 -292h299l-11 -54h-363z" />
    <glyph glyph-name="F" unicode="F" horiz-adv-x="426" 
d="M56 0l148 714h354l-11 -54h-290l-54 -260h271l-12 -54h-271l-71 -346h-64z" />
    <glyph glyph-name="G" unicode="G" horiz-adv-x="537" 
d="M491 310h-169l11 54h229l-75 -364h-50l24 118h-2q-29 -60 -79.5 -95t-104.5 -35q-227 0 -151 369t304 369q97 0 136.5 -57.5t24.5 -154.5h-64q15 68 -13 113t-95 45q-80 0 -137 -74t-92 -241q-25 -115 -18.5 -185t35 -100t81.5 -30q73 0 124.5 64t77.5 189z" />
    <glyph glyph-name="H" unicode="H" horiz-adv-x="519" 
d="M399 0l74 356h-279l-74 -356h-64l148 714h64l-63 -304h279l63 304h64l-148 -714h-64z" />
    <glyph glyph-name="I" unicode="I" horiz-adv-x="184" 
d="M60 0l148 714h64l-148 -714h-64z" />
    <glyph glyph-name="J" unicode="J" horiz-adv-x="407" 
d="M56 180l6 29h64l-4 -17q-17 -73 -2 -111.5t66 -38.5q55 0 88.5 31.5t50.5 112.5l110 528h64l-111 -535q-42 -191 -210 -191q-80 0 -111.5 45.5t-10.5 146.5z" />
    <glyph glyph-name="K" unicode="K" horiz-adv-x="480" 
d="M56 0l148 714h64l-78 -374h2l351 374h68l-280 -298l156 -416h-68l-139 362l-109 -112l-51 -250h-64z" />
    <glyph glyph-name="L" unicode="L" horiz-adv-x="426" 
d="M56 0l148 714h64l-137 -660h296l-11 -54h-360z" />
    <glyph glyph-name="M" unicode="M" horiz-adv-x="686" 
d="M62 0l148 714h111l40 -634h2l304 634h105l-148 -714h-64l135 654h-2l-320 -654h-60l-50 654h-2l-135 -654h-64z" />
    <glyph glyph-name="N" unicode="N" horiz-adv-x="537" 
d="M56 0l148 714h86l144 -622h2l129 622h64l-148 -714h-86l-144 622h-2l-129 -622h-64z" />
    <glyph glyph-name="O" unicode="O" horiz-adv-x="556" 
d="M188 357q-25 -115 -18.5 -185t35 -100t81.5 -30q165 0 230 315q32 174 6.5 244.5t-105.5 70.5t-137 -74t-92 -241zM124 357q76 369 304 369t152 -369q-79 -369 -305 -369q-227 0 -151 369z" />
    <glyph glyph-name="P" unicode="P" horiz-adv-x="480" 
d="M56 0l148 714h193q194 0 154 -202q-44 -202 -260 -202h-107l-64 -310h-64zM257 660l-62 -296h109q151 0 183 148q15 78 -15.5 113t-105.5 35h-109z" />
    <glyph glyph-name="Q" unicode="Q" horiz-adv-x="556" 
d="M383 74l-65 78l43 38l61 -75q59 77 94 242q32 174 6.5 244.5t-105.5 70.5t-137 -74t-92 -241q-25 -115 -18.5 -185t35 -100t81.5 -30q54 0 97 32zM471 -38l-58 70q-61 -44 -138 -44q-227 0 -151 369t304 369t152 -369q-41 -197 -125 -287l59 -70z" />
    <glyph glyph-name="R" unicode="R" horiz-adv-x="500" 
d="M257 660l-58 -280h110q160 0 189 140q15 69 -13 104.5t-111 35.5h-117zM56 0l148 714h213q89 0 127 -47t21 -132q-34 -156 -167 -181v-2q64 -6 83 -45.5t4 -123.5l-15 -78q-13 -74 9 -105h-75q-12 27 1 100l11 60q16 98 -4 132t-104 34h-121l-67 -326h-64z" />
    <glyph glyph-name="S" unicode="S" horiz-adv-x="480" 
d="M543 531h-64q30 141 -99 141q-63 0 -107 -36.5t-54 -91.5q-9 -43 4 -72.5t40.5 -45.5t61.5 -28.5t68 -26t60.5 -32.5t38 -55t0.5 -87q-21 -102 -89.5 -155.5t-169.5 -53.5q-102 0 -144 53.5t-20 158.5l4 21h64l-5 -27q-15 -71 12.5 -111.5t97.5 -40.5q71 0 120.5 36.5
t63.5 108.5q9 43 -4 72.5t-40.5 45t-61.5 27.5t-68 26t-60.5 33.5t-38 56.5t-0.5 89q18 85 81 137t155 52q195 0 154 -195z" />
    <glyph glyph-name="T" unicode="T" 
d="M190 0l137 660h-184l11 54h432l-11 -54h-184l-137 -660h-64z" />
    <glyph glyph-name="U" unicode="U" horiz-adv-x="500" 
d="M87 200l107 514h64l-107 -513q-33 -159 107 -159t173 159l107 513h64l-107 -514q-23 -111 -84.5 -161.5t-163.5 -50.5t-142.5 50.5t-17.5 161.5z" />
    <glyph glyph-name="V" unicode="V" horiz-adv-x="462" 
d="M191 0l-40 714h68l25 -646h2l293 646h68l-336 -714h-80z" />
    <glyph glyph-name="W" unicode="W" horiz-adv-x="722" 
d="M162 0l-3 714h64l-6 -628h2l253 628h74l-9 -628h2l256 628h64l-299 -714h-80l12 628h-2l-248 -628h-80z" />
    <glyph glyph-name="X" unicode="X" horiz-adv-x="462" 
d="M395 0l-103 307l-229 -307h-64l271 364l-110 350h68l92 -290l214 290h64l-257 -350l122 -364h-68z" />
    <glyph glyph-name="Y" unicode="Y" 
d="M190 0l59 286l-104 428h68l83 -356l231 356h68l-282 -428l-59 -286h-64z" />
    <glyph glyph-name="Z" unicode="Z" horiz-adv-x="462" 
d="M22 0l12 60l473 600h-328l11 54h393l-13 -60l-466 -600h347l-11 -54h-418z" />
    <glyph glyph-name="bracketleft" unicode="[" horiz-adv-x="241" 
d="M44 -184l187 898h158l-10 -50h-98l-166 -798h98l-11 -50h-158z" />
    <glyph glyph-name="backslash" unicode="\" horiz-adv-x="278" 
d="M140 726h54l91 -738h-54z" />
    <glyph glyph-name="bracketright" unicode="]" horiz-adv-x="241" 
d="M-38 -184l11 50h97l166 798h-98l10 50h158l-187 -898h-157z" />
    <glyph glyph-name="asciicircum" unicode="^" horiz-adv-x="600" 
d="M552 243l-120 393l-284 -393h-54l325 453h50l137 -453h-54z" />
    <glyph glyph-name="underscore" unicode="_" horiz-adv-x="500" 
d="M-25 -125l10 50h499l-10 -50h-499z" />
    <glyph glyph-name="grave" unicode="`" horiz-adv-x="186" 
d="M141 739h71l46 -141h-48z" />
    <glyph glyph-name="a" unicode="a" horiz-adv-x="426" 
d="M340 188l23 112h-2q-10 -18 -71 -35l-53 -13q-50 -12 -77.5 -37.5t-36.5 -72.5q-10 -48 6.5 -76t55.5 -28q56 0 98 39.5t57 110.5zM184 373h-60q36 170 199 170q153 0 121 -141l-65 -314q-9 -44 22 -44h17l-9 -44q-18 -6 -30 -6q-39 0 -55 13.5t-8 52.5l4 18h-2
q-51 -90 -156 -90q-68 0 -93.5 39.5t-10.5 110.5q25 117 138 147l119 32q34 8 46.5 23.5t22.5 60.5q19 92 -73 92q-102 0 -127 -120z" />
    <glyph glyph-name="b" unicode="b" 
d="M167 266q-15 -74 -15 -119q0 -64 21.5 -86.5t61.5 -22.5q25 0 45.5 8.5t43 31t42 70t33.5 118.5q15 74 15 118q0 63 -22.5 86t-61.5 23q-26 0 -46.5 -8.5t-42.5 -31t-41 -69.5t-33 -118zM52 0l148 714h60l-55 -263h2q19 43 56.5 67.5t86.5 24.5q172 0 113 -277
q-30 -140 -85.5 -209t-142.5 -69q-48 0 -77.5 27t-31.5 73h-2l-18 -88h-54z" />
    <glyph glyph-name="c" unicode="c" horiz-adv-x="407" 
d="M353 176h60q-24 -86 -79.5 -137t-128.5 -51q-180 0 -120 278q29 138 90 207.5t150 69.5q75 0 108.5 -44t20.5 -126h-60q8 62 -11.5 91t-67.5 29q-55 0 -96.5 -49t-69.5 -179q-15 -72 -16 -119.5t12 -69.5t29 -30t40 -8q96 0 139 138z" />
    <glyph glyph-name="d" unicode="d" 
d="M155 266q-15 -74 -15 -119q0 -64 21.5 -86.5t61.5 -22.5q25 0 45.5 8.5t43 31t42 70t33.5 118.5q15 74 15 118q0 64 -22 86.5t-62 22.5q-26 0 -46.5 -8.5t-42.5 -31t-41 -69.5t-33 -118zM338 0l18 88h-2q-22 -46 -62.5 -73t-88.5 -27q-171 0 -112 278q30 140 85 208.5
t142 68.5q50 0 77 -24.5t28 -67.5h2l55 263h60l-148 -714h-54z" />
    <glyph glyph-name="e" unicode="e" horiz-adv-x="426" 
d="M165 313h226q18 97 -1 138.5t-75 41.5q-57 0 -93 -41.5t-57 -138.5zM361 176h60q-24 -86 -80.5 -137t-129.5 -51q-180 0 -120 278q29 138 90 207.5t150 69.5t117.5 -62t0.5 -196l-5 -22h-290l-5 -25q-22 -107 -0.5 -153.5t71.5 -46.5q98 0 141 138z" />
    <glyph glyph-name="f" unicode="f" horiz-adv-x="241" 
d="M80 0l100 481h-73l10 50h73l13 63q14 64 43.5 96t99.5 32q26 0 37 -3l-10 -50q-13 3 -29 3q-34 0 -53 -17t-28 -61l-13 -63h94l-10 -50h-94l-100 -481h-60z" />
    <glyph glyph-name="g" unicode="g" 
d="M156 272q-23 -128 -6 -175t73 -47q57 0 96 50t63 172q23 126 6 173.5t-73 47.5t-95 -50t-64 -171zM425 449l17 82h54l-103 -493q-24 -112 -77 -167t-143 -55q-76 0 -109.5 35.5t-21.5 94.5h60q-7 -36 18 -58t66 -22q111 0 142 145l17 84h-2q-47 -95 -143 -95
q-165 0 -109 266q30 140 85 208.5t142 68.5q44 0 72 -24.5t33 -69.5h2z" />
    <glyph glyph-name="h" unicode="h" 
d="M58 0l148 714h60l-53 -257h2q20 41 59 63.5t88 22.5q64 0 93 -35t14 -107l-83 -401h-60l79 384q24 109 -68 109q-53 0 -92.5 -37t-52.5 -99l-74 -357h-60z" />
    <glyph glyph-name="i" unicode="i" horiz-adv-x="184" 
d="M189 612l21 102h60l-21 -102h-60zM62 0l110 531h60l-110 -531h-60z" />
    <glyph glyph-name="j" unicode="j" horiz-adv-x="184" 
d="M189 612l21 102h60l-21 -102h-60zM53 -42l119 573h60l-123 -593q-25 -122 -140 -122q-19 0 -32 3l10 50q21 -3 23 -3q33 0 52.5 19.5t30.5 72.5z" />
    <glyph glyph-name="k" unicode="k" horiz-adv-x="407" 
d="M52 0l148 714h60l-93 -447h2l261 264h74l-201 -197l120 -334h-74l-100 280l-99 -94l-38 -186h-60z" />
    <glyph glyph-name="l" unicode="l" horiz-adv-x="184" 
d="M62 0l148 714h60l-148 -714h-60z" />
    <glyph glyph-name="m" unicode="m" horiz-adv-x="686" 
d="M62 0l110 531h54l-15 -74h2q57 86 152 86q47 0 70.5 -25.5t21.5 -67.5h2q56 93 154 93q58 0 84 -33.5t11 -103.5l-84 -406h-60l82 397q20 96 -63 96q-46 0 -85 -37.5t-51 -98.5l-74 -357h-60l82 397q19 96 -63 96q-46 0 -85 -37.5t-51 -98.5l-74 -357h-60z" />
    <glyph glyph-name="n" unicode="n" 
d="M58 0l110 531h54l-15 -74h2q62 86 153 86q64 0 93 -35t14 -107l-83 -401h-60l79 384q24 109 -68 109q-53 0 -92.5 -37t-52.5 -99l-74 -357h-60z" />
    <glyph glyph-name="o" unicode="o" horiz-adv-x="426" 
d="M149 266q-14 -67 -14 -108q0 -120 85 -120q117 0 167 228q13 61 13 106q0 121 -85 121q-119 0 -166 -227zM85 266q29 138 90 207.5t150 69.5t122 -70t4 -207q-29 -139 -90.5 -208.5t-150.5 -69.5t-121.5 69.5t-3.5 208.5z" />
    <glyph glyph-name="p" unicode="p" 
d="M399 265q14 69 14.5 116.5t-12 70.5t-29 32t-40.5 9q-50 0 -94 -47q-44 -49 -71 -181q-15 -73 -15 -119q0 -62 22 -85t61 -23q54 0 95.5 47t68.5 180zM15 -176l147 707h54l-16 -76h2q23 39 61.5 63.5t87.5 24.5q88 0 115 -69.5t-3 -208.5t-85.5 -208t-142.5 -69
q-50 0 -77 24.5t-28 67.5h-2l-53 -256h-60z" />
    <glyph glyph-name="q" unicode="q" 
d="M155 265q-15 -73 -15 -119q0 -62 22 -85t61 -23q54 0 95.5 46.5t68.5 180.5q28 133 3 181q-24 47 -74 47q-52 0 -93 -48t-68 -180zM295 -176l53 256h-2q-19 -43 -56.5 -67.5t-86.5 -24.5q-171 0 -112 277q30 141 84 209.5t142 68.5q49 0 77.5 -24.5t35.5 -63.5h2l16 76
h54l-147 -707h-60z" />
    <glyph glyph-name="r" unicode="r" horiz-adv-x="278" 
d="M58 0l110 531h60l-17 -83h2q55 95 153 95q10 0 21 -3l-13 -60q-14 3 -28 3q-54 0 -99 -39t-60 -112l-69 -332h-60z" />
    <glyph glyph-name="s" unicode="s" horiz-adv-x="389" 
d="M274 231l-78 33q-93 39 -75 126q17 78 67 115.5t122 37.5q147 0 116 -148l-3 -15h-60l3 15q21 98 -67 98q-97 0 -116 -90q-6 -31 5 -52t49 -37l80 -33q91 -37 71 -135q-15 -71 -65.5 -114.5t-131.5 -43.5q-84 0 -115.5 38.5t-13.5 126.5l4 17h60l-3 -14q-24 -118 77 -118
q49 0 82.5 25t42.5 70q16 69 -51 98z" />
    <glyph glyph-name="t" unicode="t" horiz-adv-x="241" 
d="M98 87l82 394h-73l10 50h73l30 147h60l-30 -147h94l-10 -50h-94l-80 -381q-6 -31 5 -43.5t41 -12.5q17 0 38 6l-10 -50q-12 -6 -44 -6q-62 0 -82.5 20t-9.5 73z" />
    <glyph glyph-name="u" unicode="u" 
d="M85 130l83 401h60l-78 -374q-14 -64 2 -91.5t65 -27.5q51 0 92 37.5t53 98.5l74 357h60l-110 -531h-54l15 74h-2q-62 -86 -154 -86q-64 0 -92.5 35t-13.5 107z" />
    <glyph glyph-name="v" unicode="v" horiz-adv-x="370" 
d="M155 0l-38 531h64l22 -463h2l204 463h64l-250 -531h-68z" />
    <glyph glyph-name="w" unicode="w" horiz-adv-x="592" 
d="M128 0l-8 531h64l-8 -471h2l194 471h74l-8 -471h2l188 471h64l-228 -531h-71l1 471h-2l-193 -471h-71z" />
    <glyph glyph-name="x" unicode="x" horiz-adv-x="370" 
d="M296 0l-64 228l-158 -228h-68l199 274l-83 257h68l61 -210l149 210h68l-191 -257l87 -274h-68z" />
    <glyph glyph-name="y" unicode="y" horiz-adv-x="370" 
d="M158 -5l-41 536h64l23 -460h2l203 460h64l-274 -574q-38 -78 -73 -105.5t-96 -27.5q-17 0 -39 2l10 50q26 -2 38 -2q29 0 51 15.5t43 55.5z" />
    <glyph glyph-name="z" unicode="z" horiz-adv-x="352" 
d="M18 0l10 50l342 431h-239l10 50h303l-10 -50l-342 -431h252l-10 -50h-316z" />
    <glyph glyph-name="braceleft" unicode="{" horiz-adv-x="241" 
d="M178 419l36 175q25 120 132 120h51l-10 -50h-50q-25 0 -40 -15.5t-23 -52.5l-38 -186q-26 -130 -98 -144l-1 -2q67 -14 38 -144l-38 -186q-8 -37 1 -52.5t33 -15.5h50l-11 -50h-51q-107 0 -82 120l37 175q11 50 11 78t-10 39.5t-33 11.5l11 50q33 0 51 27.5t34 101.5z
" />
    <glyph glyph-name="bar" unicode="|" horiz-adv-x="222" 
d="M83 -12l153 738h50l-153 -738h-50z" />
    <glyph glyph-name="braceright" unicode="}" horiz-adv-x="241" 
d="M173 111l-37 -175q-25 -120 -132 -120h-50l11 50h49q24 0 39 15t23 53l38 186q26 130 98 144l1 2q-67 14 -38 144l38 186q8 38 -0.5 53t-32.5 15h-50l10 50h51q107 0 82 -120l-36 -175q-16 -75 -9 -102t40 -27l-11 -50q-33 0 -50.5 -27t-33.5 -102z" />
    <glyph glyph-name="asciitilde" unicode="~" horiz-adv-x="600" 
d="M560 316l29 -36q-42 -46 -73.5 -66t-69.5 -20q-42 0 -95 33q-59 35 -108 35q-52 0 -99 -72l-29 36q66 86 143 86q40 0 105 -32q71 -36 94 -36q43 0 103 72z" />
    <glyph glyph-name="uni00A0" unicode="&#xa0;" horiz-adv-x="240" 
 />
    <glyph glyph-name="exclamdown" unicode="&#xa1;" horiz-adv-x="240" 
d="M177 440l21 102h68l-21 -102h-68zM50 -172l47 226l75 302h44l-51 -302l-47 -226h-68z" />
    <glyph glyph-name="cent" unicode="&#xa2;" horiz-adv-x="480" 
d="M212 -95l17 83q-165 8 -108 278q27 130 84 200t139 77l18 83h30l-18 -83q142 -11 117 -170h-60q16 110 -67 120l-95 -455q84 17 121 138h60q-23 -81 -73 -130.5t-118 -57.5l-17 -83h-30zM239 38l95 455q-50 -7 -87.5 -57.5t-61.5 -170.5q-48 -221 54 -227z" />
    <glyph glyph-name="sterling" unicode="&#xa3;" horiz-adv-x="480" 
d="M548 504h-60q24 154 -107 154q-58 0 -102.5 -32.5t-56.5 -88.5q-11 -53 15 -122l14 -45h151l-9 -44h-134q11 -26 2 -73q-22 -106 -158 -199l1 -2q54 24 83 24q4 0 65 -18q50 -16 69 -16q50 0 131 50l17 -46q-76 -58 -167 -58q-25 0 -74.5 19t-75.5 19q-15 0 -32 -4
t-27.5 -8.5t-26 -11.5t-17.5 -8l-21 49q145 91 167 200q9 38 -4 83h-98l9 44h81l-20 65q-17 48 -6 96q17 83 85 130t154 47q91 0 130.5 -56t21.5 -148z" />
    <glyph glyph-name="currency" unicode="&#xa4;" horiz-adv-x="480" 
d="M146 348q-15 -72 25 -121t106 -49t126 49t75 121q14 72 -25 121t-106 49q-66 0 -126.5 -49.5t-74.5 -120.5zM83 128l-27 37l57 47q-38 59 -21 136q16 76 77 137l-37 47l43 36l37 -47q70 47 146 47q78 0 127 -48l57 48l27 -36l-57 -47q37 -59 20 -137q-16 -75 -75 -136
l36 -47l-43 -37l-37 49q-70 -49 -147 -49q-76 0 -127 48z" />
    <glyph glyph-name="yen" unicode="&#xa5;" horiz-adv-x="480" 
d="M208 0l36 174h-140l9 44h140l13 63l-6 24h-129l9 44h109l-90 347h68l86 -344l228 344h68l-234 -347h109l-9 -44h-129l-16 -24l-13 -63h140l-9 -44h-140l-36 -174h-64z" />
    <glyph glyph-name="brokenbar" unicode="&#xa6;" horiz-adv-x="222" 
d="M180 456l56 270h50l-56 -270h-50zM83 -12l56 270h50l-56 -270h-50z" />
    <glyph glyph-name="section" unicode="&#xa7;" horiz-adv-x="481" 
d="M392 354l-124 93q-90 -44 -103 -106q-11 -51 62 -107l114 -86q84 36 99 113q10 49 -48 93zM524 577h-60q10 45 -13 72t-69 27q-45 0 -78.5 -25t-41.5 -62q-5 -27 7 -48.5t50 -48.5l114 -86q47 -35 61.5 -68.5t4.5 -79.5q-9 -44 -42.5 -81t-80.5 -58q50 -47 36 -118
q-15 -66 -68 -108.5t-130 -42.5q-78 0 -116.5 43t-24.5 109l4 20h60q-12 -56 8.5 -89t77.5 -33q47 0 81 25.5t42 65.5q8 35 -5.5 60t-53.5 55l-104 77q-52 40 -69.5 72.5t-8.5 81.5q8 43 46.5 81.5t84.5 55.5q-53 44 -39 112q14 64 70.5 102t127.5 38q76 0 110 -41t19 -108z
" />
    <glyph glyph-name="dieresis" unicode="&#xa8;" horiz-adv-x="186" 
d="M264 617l21 102h60l-21 -102h-60zM114 617l21 102h60l-21 -102h-60z" />
    <glyph glyph-name="copyright" unicode="&#xa9;" horiz-adv-x="800" 
d="M155 357q-28 -132 46 -225.5t206 -93.5q133 0 245.5 93.5t140.5 225.5q26 132 -47.5 225.5t-205.5 93.5t-245.5 -93.5t-139.5 -225.5zM105 357q32 153 162 261t283 108t239 -108t54 -261q-31 -153 -162 -261t-284 -108t-238.5 108t-53.5 261zM603 281h54
q-30 -70 -90.5 -114t-129.5 -44q-100 0 -148 67t-26 167q20 103 93 168t175 65q75 0 119 -40.5t39 -112.5h-54q-1 46 -30.5 74.5t-83.5 28.5q-79 0 -133.5 -51.5t-70.5 -131.5q-17 -75 18.5 -129.5t111.5 -54.5q52 0 94.5 30.5t61.5 77.5z" />
    <glyph glyph-name="ordfeminine" unicode="&#xaa;" horiz-adv-x="277" 
d="M294 499l11 52h-2q-7 -12 -45 -21l-35 -8q-59 -14 -67 -55q-5 -24 6 -40t34 -16q36 0 63 23.5t35 64.5zM190 602h-50q12 53 45 79.5t94 26.5q59 0 79.5 -22t11.5 -63l-38 -185q-6 -27 14 -27h11l-8 -38q-15 -6 -35 -6q-45 0 -37 40l3 14h-2q-30 -54 -100 -54
q-48 0 -67.5 26.5t-10.5 67.5q17 74 99 95l78 19q22 6 30 14t12 30q5 22 -9 33.5t-41 11.5q-67 0 -79 -62z" />
    <glyph glyph-name="guillemotleft" unicode="&#xab;" horiz-adv-x="370" 
d="M109 254l13 60l154 139l-14 -68l-110 -101l68 -101l-15 -68zM240 254l13 60l154 139l-14 -68l-110 -101l68 -101l-15 -68z" />
    <glyph glyph-name="logicalnot" unicode="&#xac;" horiz-adv-x="600" 
d="M525 108l45 217h-456l10 50h506l-55 -267h-50z" />
    <glyph glyph-name="uni00AD" unicode="&#xad;" horiz-adv-x="333" 
d="M122 311h217l-11 -54h-217z" />
    <glyph glyph-name="registered" unicode="&#xae;" horiz-adv-x="800" 
d="M155 357q-28 -132 46 -225.5t206 -93.5q133 0 245.5 93.5t140.5 225.5q26 132 -47.5 225.5t-205.5 93.5t-245.5 -93.5t-139.5 -225.5zM105 357q32 153 162 261t283 108t239 -108t54 -261q-31 -153 -162 -261t-284 -108t-238.5 108t-53.5 261zM421 533l-32 -156h108
q103 -2 120 79q9 42 -17 59.5t-71 17.5h-108zM561 138l-89 195h-92l-41 -195h-50l91 439h169q143 0 118 -122q-21 -101 -135 -122l89 -195h-60z" />
    <glyph glyph-name="macron" unicode="&#xaf;" horiz-adv-x="186" 
d="M106 646l9 44h238l-9 -44h-238z" />
    <glyph glyph-name="degree" unicode="&#xb0;" horiz-adv-x="400" 
d="M174 565q12 60 62.5 101.5t110.5 41.5q59 0 92 -41.5t21 -101.5t-62.5 -101.5t-110.5 -41.5q-59 0 -92 41.5t-21 101.5zM218 565q-8 -42 14 -70.5t64 -28.5t77 28.5t43 70.5t-14 70.5t-64 28.5t-77 -28.5t-43 -70.5z" />
    <glyph glyph-name="plusminus" unicode="&#xb1;" horiz-adv-x="600" 
d="M47 0l10 50h506l-10 -50h-506zM344 334l36 172h50l-36 -172h228l-10 -50h-228l-36 -172h-50l36 172h-228l10 50h228z" />
    <glyph glyph-name="twosuperior" unicode="&#xb2;" horiz-adv-x="312" 
d="M197 573h-54q31 135 165 135q55 0 83.5 -28.5t17.5 -86.5q-9 -40 -30 -69.5t-70 -61.5l-58 -37q-81 -51 -103 -101h207l-9 -44h-261q12 53 42.5 91t87.5 76l58 39q39 26 57 50t24 55q8 36 -9 54.5t-50 18.5q-75 0 -98 -91z" />
    <glyph glyph-name="threesuperior" unicode="&#xb3;" horiz-adv-x="312" 
d="M219 481l9 44h18q41 0 68 19t33 50q6 30 -8.5 50t-46.5 20q-31 0 -57 -20t-34 -54h-54q25 118 154 118q59 0 85.5 -28t16.5 -77q-19 -81 -94 -97l-1 -2q40 -5 57.5 -32.5t9.5 -68.5q-12 -60 -54.5 -95t-110.5 -35q-63 0 -91 31t-17 91h54q-7 -30 10 -54t53 -24
q34 0 63.5 22t38.5 63q8 37 -12.5 58t-62.5 21h-27z" />
    <glyph glyph-name="acute" unicode="&#xb4;" horiz-adv-x="186" 
d="M276 739h71l-127 -141h-48z" />
    <glyph glyph-name="mu" unicode="&#xb5;" 
d="M21 -176l147 707h60l-78 -374q-14 -64 2 -91.5t65 -27.5q51 0 92 37.5t53 98.5l74 357h60l-110 -531h-54l15 74h-2q-62 -86 -154 -86q-59 0 -69 24h-2l-39 -188h-60z" />
    <glyph glyph-name="paragraph" unicode="&#xb6;" horiz-adv-x="481" 
d="M165 -138l98 472q-67 0 -104.5 53.5t-21.5 128.5q20 94 82.5 146t147.5 52h182l-177 -852h-50l168 808h-107l-168 -808h-50z" />
    <glyph glyph-name="periodcentered" unicode="&#xb7;" horiz-adv-x="240" 
d="M133 328q5 23 24 39t42 16t36 -16t8 -39t-24.5 -39t-42.5 -16t-35.5 16t-7.5 39z" />
    <glyph glyph-name="cedilla" unicode="&#xb8;" horiz-adv-x="186" 
d="M90 0h37l-55 -55l2 -1q11 5 35 5q32 0 50 -19.5t13 -47.5q-9 -39 -47 -62t-77 -23q-49 0 -84 20l19 31q28 -15 56 -15q69 0 78 44q4 18 -10 27t-36 9q-27 0 -46 -10l-9 17z" />
    <glyph glyph-name="onesuperior" unicode="&#xb9;" horiz-adv-x="312" 
d="M202 280l66 320h-108l8 36q112 1 132 72h45l-89 -428h-54z" />
    <glyph glyph-name="ordmasculine" unicode="&#xba;" horiz-adv-x="277" 
d="M174 538q-13 -65 1.5 -96t47.5 -31q76 0 102 127q13 65 -1 95.5t-48 30.5q-33 0 -61 -31t-41 -95zM120 538q36 170 165 170q130 0 94 -170q-35 -171 -165 -171t-94 171z" />
    <glyph glyph-name="guillemotright" unicode="&#xbb;" horiz-adv-x="370" 
d="M211 115l15 68l110 101l-68 101l14 68l96 -139l-13 -60zM80 115l15 68l110 101l-68 101l14 68l96 -139l-13 -60z" />
    <glyph glyph-name="onequarter" unicode="&#xbc;" horiz-adv-x="721" 
d="M202 280l66 320h-108l8 36q112 1 132 72h45l-89 -428h-54zM83 -30l608 756h50l-608 -756h-50zM455 146h142l44 214h-2zM567 0l22 110h-186l8 36l234 282h60l-58 -282h54l-8 -36h-54l-22 -110h-50z" />
    <glyph glyph-name="onehalf" unicode="&#xbd;" horiz-adv-x="721" 
d="M507 293h-54q31 135 165 135q54 0 83.5 -29t18.5 -86q-9 -41 -30.5 -70t-70.5 -61l-57 -37q-81 -51 -103 -101h207l-9 -44h-261q12 53 42.5 91t87.5 76l57 39q40 26 58 50t24 55q8 36 -9.5 54.5t-50.5 18.5q-73 0 -98 -91zM202 280l66 320h-108l8 36q112 1 132 72h45
l-89 -428h-54zM53 -30l608 756h50l-608 -756h-50z" />
    <glyph glyph-name="threequarters" unicode="&#xbe;" horiz-adv-x="721" 
d="M219 481l9 44h18q41 0 68 19t33 50q6 30 -8.5 50t-46.5 20q-31 0 -57 -20t-34 -54h-54q25 118 154 118q59 0 85.5 -28t16.5 -77q-19 -81 -94 -97l-1 -2q40 -5 57.5 -32.5t9.5 -68.5q-12 -60 -54.5 -95t-110.5 -35q-63 0 -91 31t-17 91h54q-7 -30 10 -54t53 -24
q34 0 63.5 22t38.5 63q8 37 -12.5 58t-62.5 21h-27zM113 -30l608 756h50l-608 -756h-50zM455 146h142l44 214h-2zM567 0l22 110h-186l8 36l234 282h60l-58 -282h54l-8 -36h-54l-22 -110h-50z" />
    <glyph glyph-name="questiondown" unicode="&#xbf;" horiz-adv-x="426" 
d="M285 440l21 102h68l-21 -102h-68zM272 357h60l-8 -35q-12 -55 -32 -87t-67 -73l-51 -45q-64 -56 -79 -127q-11 -54 12.5 -89t74.5 -35q127 0 163 168h64q-20 -98 -81 -158t-153 -60q-83 0 -121 48t-22 127q15 85 97 157l53 46q38 33 56.5 62.5t27.5 72.5z" />
    <glyph glyph-name="Agrave" unicode="&#xc0;" horiz-adv-x="500" 
d="M-1 0l359 714h80l63 -714h-68l-15 208h-250l-101 -208h-68zM193 262h222l-26 402h-2zM318 913h71l46 -141h-48z" />
    <glyph glyph-name="Aacute" unicode="&#xc1;" horiz-adv-x="500" 
d="M-1 0l359 714h80l63 -714h-68l-15 208h-250l-101 -208h-68zM193 262h222l-26 402h-2zM479 913h71l-127 -141h-48z" />
    <glyph glyph-name="Acircumflex" unicode="&#xc2;" horiz-adv-x="500" 
d="M-1 0l359 714h80l63 -714h-68l-15 208h-250l-101 -208h-68zM193 262h222l-26 402h-2zM338 772h-60l125 141h60l67 -141h-60l-46 100z" />
    <glyph glyph-name="Atilde" unicode="&#xc3;" horiz-adv-x="500" 
d="M-1 0l359 714h80l63 -714h-68l-15 208h-250l-101 -208h-68zM193 262h222l-26 402h-2zM508 893h44q-9 -35 -37 -66.5t-61 -31.5q-25 0 -45 15l-34 21q-14 8 -22 8q-13 0 -26 -14.5t-20 -33.5h-44q8 34 37 66t59 32q25 0 53 -18l23 -15q14 -11 28 -11q16 0 29 16.5t16 31.5
z" />
    <glyph glyph-name="Adieresis" unicode="&#xc4;" horiz-adv-x="500" 
d="M-1 0l359 714h80l63 -714h-68l-15 208h-250l-101 -208h-68zM193 262h222l-26 402h-2zM455 791l21 102h60l-21 -102h-60zM305 791l21 102h60l-21 -102h-60z" />
    <glyph glyph-name="Aring" unicode="&#xc5;" horiz-adv-x="500" 
d="M-1 0l359 714h80l63 -714h-68l-15 208h-250l-101 -208h-68zM193 262h222l-26 402h-2zM355 834q-5 -25 8.5 -42t38.5 -17t45.5 17t25.5 42t-8.5 42t-38.5 17t-45.5 -17t-25.5 -42zM319 834q8 40 41 66t77 26q37 0 58.5 -27t13.5 -65q-8 -41 -41.5 -66.5t-76.5 -25.5
q-37 0 -58.5 27t-13.5 65z" />
    <glyph glyph-name="AE" unicode="&#xc6;" horiz-adv-x="704" 
d="M215 262h171l83 398h-10zM332 0l43 208h-191l-124 -208h-68l438 714h395l-11 -54h-281l-54 -260h262l-12 -54h-262l-60 -292h290l-11 -54h-354z" />
    <glyph glyph-name="Ccedilla" unicode="&#xc7;" horiz-adv-x="519" 
d="M476 242h64q-31 -122 -100 -189q-59 -56 -142 -64l-44 -44l2 -1q11 5 35 5q32 0 50 -19.5t13 -47.5q-9 -39 -47 -62t-77 -23q-49 0 -84 20l19 31q28 -15 56 -15q69 0 78 44q4 18 -10 27t-36 9q-27 0 -46 -10l-9 17l63 68q-46 3 -79 21q-117 68 -58 348q76 369 304 369
q103 0 141.5 -62.5t18.5 -157.5h-64q15 75 -12.5 120.5t-94.5 45.5q-80 0 -137 -74t-92 -241q-25 -115 -18.5 -185t35 -100t81.5 -30q67 0 116 52.5t74 147.5z" />
    <glyph glyph-name="Egrave" unicode="&#xc8;" 
d="M56 0l148 714h354l-11 -54h-290l-54 -260h271l-12 -54h-271l-60 -292h299l-11 -54h-363zM310 913h71l46 -141h-48z" />
    <glyph glyph-name="Eacute" unicode="&#xc9;" 
d="M56 0l148 714h354l-11 -54h-290l-54 -260h271l-12 -54h-271l-60 -292h299l-11 -54h-363zM456 913h71l-127 -141h-48z" />
    <glyph glyph-name="Ecircumflex" unicode="&#xca;" 
d="M56 0l148 714h354l-11 -54h-290l-54 -260h271l-12 -54h-271l-60 -292h299l-11 -54h-363zM315 772h-60l125 141h60l67 -141h-60l-46 100z" />
    <glyph glyph-name="Edieresis" unicode="&#xcb;" 
d="M56 0l148 714h354l-11 -54h-290l-54 -260h271l-12 -54h-271l-60 -292h299l-11 -54h-363zM434 791l21 102h60l-21 -102h-60zM284 791l21 102h60l-21 -102h-60z" />
    <glyph glyph-name="Igrave" unicode="&#xcc;" horiz-adv-x="184" 
d="M60 0l148 714h64l-148 -714h-64zM159 913h71l46 -141h-48z" />
    <glyph glyph-name="Iacute" unicode="&#xcd;" horiz-adv-x="184" 
d="M60 0l148 714h64l-148 -714h-64zM320 913h71l-127 -141h-48z" />
    <glyph glyph-name="Icircumflex" unicode="&#xce;" horiz-adv-x="184" 
d="M60 0l148 714h64l-148 -714h-64zM180 772h-60l125 141h60l67 -141h-60l-46 100z" />
    <glyph glyph-name="Idieresis" unicode="&#xcf;" horiz-adv-x="184" 
d="M60 0l148 714h64l-148 -714h-64zM294 791l21 102h60l-21 -102h-60zM144 791l21 102h60l-21 -102h-60z" />
    <glyph glyph-name="Eth" unicode="&#xd0;" horiz-adv-x="537" 
d="M203 400h160l-12 -54h-160l-60 -292h104q108 0 167.5 66t94.5 236q26 116 17 183.5t-45 94t-108 26.5h-104zM56 0l71 346h-56l12 54h56l65 314h172q102 0 151.5 -41t53.5 -120t-20 -196q-38 -186 -111.5 -271.5t-221.5 -85.5h-172z" />
    <glyph glyph-name="Ntilde" unicode="&#xd1;" horiz-adv-x="537" 
d="M56 0l148 714h86l144 -622h2l129 622h64l-148 -714h-86l-144 622h-2l-129 -622h-64zM536 893h44q-9 -35 -37 -66.5t-61 -31.5q-25 0 -45 15l-34 21q-14 8 -22 8q-13 0 -26 -14.5t-20 -33.5h-44q8 34 37 66t59 32q25 0 53 -18l23 -15q14 -11 28 -11q16 0 29 16.5t16 31.5z
" />
    <glyph glyph-name="Ograve" unicode="&#xd2;" horiz-adv-x="556" 
d="M188 357q-25 -115 -18.5 -185t35 -100t81.5 -30q165 0 230 315q32 174 6.5 244.5t-105.5 70.5t-137 -74t-92 -241zM124 357q76 369 304 369t152 -369q-79 -369 -305 -369q-227 0 -151 369zM362 913h71l46 -141h-48z" />
    <glyph glyph-name="Oacute" unicode="&#xd3;" horiz-adv-x="556" 
d="M188 357q-25 -115 -18.5 -185t35 -100t81.5 -30q165 0 230 315q32 174 6.5 244.5t-105.5 70.5t-137 -74t-92 -241zM124 357q76 369 304 369t152 -369q-79 -369 -305 -369q-227 0 -151 369zM511 913h71l-127 -141h-48z" />
    <glyph glyph-name="Ocircumflex" unicode="&#xd4;" horiz-adv-x="556" 
d="M188 357q-25 -115 -18.5 -185t35 -100t81.5 -30q165 0 230 315q32 174 6.5 244.5t-105.5 70.5t-137 -74t-92 -241zM124 357q76 369 304 369t152 -369q-79 -369 -305 -369q-227 0 -151 369zM376 772h-60l125 141h60l67 -141h-60l-46 100z" />
    <glyph glyph-name="Otilde" unicode="&#xd5;" horiz-adv-x="556" 
d="M188 357q-25 -115 -18.5 -185t35 -100t81.5 -30q165 0 230 315q32 174 6.5 244.5t-105.5 70.5t-137 -74t-92 -241zM124 357q76 369 304 369t152 -369q-79 -369 -305 -369q-227 0 -151 369zM541 893h44q-9 -35 -37 -66.5t-61 -31.5q-25 0 -45 15l-34 21q-14 8 -22 8
q-13 0 -26 -14.5t-20 -33.5h-44q8 34 37 66t59 32q25 0 53 -18l23 -15q14 -11 28 -11q16 0 29 16.5t16 31.5z" />
    <glyph glyph-name="Odieresis" unicode="&#xd6;" horiz-adv-x="556" 
d="M188 357q-25 -115 -18.5 -185t35 -100t81.5 -30q165 0 230 315q32 174 6.5 244.5t-105.5 70.5t-137 -74t-92 -241zM124 357q76 369 304 369t152 -369q-79 -369 -305 -369q-227 0 -151 369zM490 791l21 102h60l-21 -102h-60zM340 791l21 102h60l-21 -102h-60z" />
    <glyph glyph-name="multiply" unicode="&#xd7;" horiz-adv-x="600" 
d="M495 28l-150 190l-230 -190l-28 35l230 190l-151 191l43 35l151 -190l229 190l29 -35l-231 -191l152 -190z" />
    <glyph glyph-name="Oslash" unicode="&#xd8;" horiz-adv-x="556" 
d="M124 -42l-34 16l49 78q-61 86 -15 305q76 369 304 369q71 0 111 -34l41 64l34 -14l-50 -79q61 -90 16 -306q-79 -369 -305 -369q-71 0 -111 34zM524 595l-325 -515q28 -38 87 -38q165 0 230 315q33 161 8 238zM179 119l326 515q-27 38 -88 38q-80 0 -137 -74t-92 -241
q-34 -159 -9 -238z" />
    <glyph glyph-name="Ugrave" unicode="&#xd9;" horiz-adv-x="500" 
d="M87 200l107 514h64l-107 -513q-33 -159 107 -159t173 159l107 513h64l-107 -514q-23 -111 -84.5 -161.5t-163.5 -50.5t-142.5 50.5t-17.5 161.5zM310 913h71l46 -141h-48z" />
    <glyph glyph-name="Uacute" unicode="&#xda;" horiz-adv-x="500" 
d="M87 200l107 514h64l-107 -513q-33 -159 107 -159t173 159l107 513h64l-107 -514q-23 -111 -84.5 -161.5t-163.5 -50.5t-142.5 50.5t-17.5 161.5zM483 913h71l-127 -141h-48z" />
    <glyph glyph-name="Ucircumflex" unicode="&#xdb;" horiz-adv-x="500" 
d="M87 200l107 514h64l-107 -513q-33 -159 107 -159t173 159l107 513h64l-107 -514q-23 -111 -84.5 -161.5t-163.5 -50.5t-142.5 50.5t-17.5 161.5zM338 772h-60l125 141h60l67 -141h-60l-46 100z" />
    <glyph glyph-name="Udieresis" unicode="&#xdc;" horiz-adv-x="500" 
d="M87 200l107 514h64l-107 -513q-33 -159 107 -159t173 159l107 513h64l-107 -514q-23 -111 -84.5 -161.5t-163.5 -50.5t-142.5 50.5t-17.5 161.5zM450 791l21 102h60l-21 -102h-60zM300 791l21 102h60l-21 -102h-60z" />
    <glyph glyph-name="Yacute" unicode="&#xdd;" 
d="M190 0l59 286l-104 428h68l83 -356l231 356h68l-282 -428l-59 -286h-64zM460 913h71l-127 -141h-48z" />
    <glyph glyph-name="Thorn" unicode="&#xde;" horiz-adv-x="480" 
d="M56 0l148 714h64l-29 -140h134q97 0 132.5 -54t16.5 -148q-44 -202 -260 -202h-107l-35 -170h-64zM228 520l-62 -296h109q151 0 183 148q17 78 -17.5 113t-103.5 35h-109z" />
    <glyph glyph-name="germandbls" unicode="&#xdf;" 
d="M52 0l112 539q18 89 72 136t133 47q76 0 109.5 -43.5t16.5 -121.5q-11 -51 -44.5 -92.5t-89.5 -52.5v-2q52 -6 78.5 -39.5t25.5 -74t-7 -80.5q-21 -105 -84.5 -163.5t-153.5 -58.5q-26 0 -39 6l10 50q11 -6 32 -6q60 0 107.5 44.5t64.5 131.5q34 160 -108 160h-22l10 50
h17q111 0 139 124q12 53 -7.5 85.5t-68.5 32.5q-102 0 -133 -139l-110 -533h-60z" />
    <glyph glyph-name="agrave" unicode="&#xe0;" horiz-adv-x="426" 
d="M340 188l23 112h-2q-10 -18 -71 -35l-53 -13q-50 -12 -77.5 -37.5t-36.5 -72.5q-10 -48 6.5 -76t55.5 -28q56 0 98 39.5t57 110.5zM184 373h-60q36 170 199 170q153 0 121 -141l-65 -314q-9 -44 22 -44h17l-9 -44q-18 -6 -30 -6q-39 0 -55 13.5t-8 52.5l4 18h-2
q-51 -90 -156 -90q-68 0 -93.5 39.5t-10.5 110.5q25 117 138 147l119 32q34 8 46.5 23.5t22.5 60.5q19 92 -73 92q-102 0 -127 -120zM258 739h71l46 -141h-48z" />
    <glyph glyph-name="aacute" unicode="&#xe1;" horiz-adv-x="426" 
d="M340 188l23 112h-2q-10 -18 -71 -35l-53 -13q-50 -12 -77.5 -37.5t-36.5 -72.5q-10 -48 6.5 -76t55.5 -28q56 0 98 39.5t57 110.5zM184 373h-60q36 170 199 170q153 0 121 -141l-65 -314q-9 -44 22 -44h17l-9 -44q-18 -6 -30 -6q-39 0 -55 13.5t-8 52.5l4 18h-2
q-51 -90 -156 -90q-68 0 -93.5 39.5t-10.5 110.5q25 117 138 147l119 32q34 8 46.5 23.5t22.5 60.5q19 92 -73 92q-102 0 -127 -120zM410 739h71l-127 -141h-48z" />
    <glyph glyph-name="acircumflex" unicode="&#xe2;" horiz-adv-x="426" 
d="M340 188l23 112h-2q-10 -18 -71 -35l-53 -13q-50 -12 -77.5 -37.5t-36.5 -72.5q-10 -48 6.5 -76t55.5 -28q56 0 98 39.5t57 110.5zM184 373h-60q36 170 199 170q153 0 121 -141l-65 -314q-9 -44 22 -44h17l-9 -44q-18 -6 -30 -6q-39 0 -55 13.5t-8 52.5l4 18h-2
q-51 -90 -156 -90q-68 0 -93.5 39.5t-10.5 110.5q25 117 138 147l119 32q34 8 46.5 23.5t22.5 60.5q19 92 -73 92q-102 0 -127 -120zM264 598h-60l125 141h60l67 -141h-60l-46 100z" />
    <glyph glyph-name="atilde" unicode="&#xe3;" horiz-adv-x="426" 
d="M340 188l23 112h-2q-10 -18 -71 -35l-53 -13q-50 -12 -77.5 -37.5t-36.5 -72.5q-10 -48 6.5 -76t55.5 -28q56 0 98 39.5t57 110.5zM184 373h-60q36 170 199 170q153 0 121 -141l-65 -314q-9 -44 22 -44h17l-9 -44q-18 -6 -30 -6q-39 0 -55 13.5t-8 52.5l4 18h-2
q-51 -90 -156 -90q-68 0 -93.5 39.5t-10.5 110.5q25 117 138 147l119 32q34 8 46.5 23.5t22.5 60.5q19 92 -73 92q-102 0 -127 -120zM436 719h44q-9 -35 -37 -66.5t-61 -31.5q-25 0 -45 15l-34 21q-14 8 -22 8q-13 0 -26 -14.5t-20 -33.5h-44q8 34 37 66t59 32q25 0 53 -18
l23 -15q14 -11 28 -11q16 0 29 16.5t16 31.5z" />
    <glyph glyph-name="adieresis" unicode="&#xe4;" horiz-adv-x="426" 
d="M340 188l23 112h-2q-10 -18 -71 -35l-53 -13q-50 -12 -77.5 -37.5t-36.5 -72.5q-10 -48 6.5 -76t55.5 -28q56 0 98 39.5t57 110.5zM184 373h-60q36 170 199 170q153 0 121 -141l-65 -314q-9 -44 22 -44h17l-9 -44q-18 -6 -30 -6q-39 0 -55 13.5t-8 52.5l4 18h-2
q-51 -90 -156 -90q-68 0 -93.5 39.5t-10.5 110.5q25 117 138 147l119 32q34 8 46.5 23.5t22.5 60.5q19 92 -73 92q-102 0 -127 -120zM376 617l21 102h60l-21 -102h-60zM226 617l21 102h60l-21 -102h-60z" />
    <glyph glyph-name="aring" unicode="&#xe5;" horiz-adv-x="426" 
d="M340 188l23 112h-2q-10 -18 -71 -35l-53 -13q-50 -12 -77.5 -37.5t-36.5 -72.5q-10 -48 6.5 -76t55.5 -28q56 0 98 39.5t57 110.5zM184 373h-60q36 170 199 170q153 0 121 -141l-65 -314q-9 -44 22 -44h17l-9 -44q-18 -6 -30 -6q-39 0 -55 13.5t-8 52.5l4 18h-2
q-51 -90 -156 -90q-68 0 -93.5 39.5t-10.5 110.5q25 117 138 147l119 32q34 8 46.5 23.5t22.5 60.5q19 92 -73 92q-102 0 -127 -120zM287 684q-5 -25 8.5 -42t38.5 -17t45.5 17t25.5 42t-8.5 42t-38.5 17t-45.5 -17t-25.5 -42zM251 684q8 40 41 66t77 26q37 0 58.5 -27
t13.5 -65q-8 -41 -41.5 -66.5t-76.5 -25.5q-37 0 -58.5 27t-13.5 65z" />
    <glyph glyph-name="ae" unicode="&#xe6;" horiz-adv-x="648" 
d="M409 313h210q37 180 -68 180q-102 0 -142 -180zM291 264l-65 -17q-48 -12 -71 -36.5t-32 -68.5q-10 -48 6.5 -76t55.5 -28q41 0 81 34.5t54 102.5l23 111h-2q-11 -13 -50 -22zM184 373h-60q36 170 192 170q48 0 77.5 -21.5t31.5 -64.5h2q21 41 60 63.5t81 22.5
q88 0 112 -69t-8 -211h-274l-6 -29q-19 -101 -1.5 -148.5t64.5 -47.5q44 0 82 39t52 99h60q-24 -90 -77 -139t-125 -49q-52 0 -80.5 29t-33.5 81h-2q-53 -110 -169 -110q-68 0 -93.5 39.5t-10.5 110.5q13 66 50 100t113 52l76 19q31 9 45 24t22 54q12 57 -2 81.5t-58 24.5
q-95 0 -120 -120z" />
    <glyph glyph-name="ccedilla" unicode="&#xe7;" horiz-adv-x="407" 
d="M353 176h60q-24 -85 -79 -137q-50 -46 -113 -50l-43 -44l2 -1q11 5 35 5q32 0 50 -19.5t13 -47.5q-9 -39 -47 -62t-77 -23q-49 0 -84 20l19 31q28 -15 56 -15q69 0 78 44q4 18 -10 27t-36 9q-27 0 -46 -10l-9 17l63 69q-28 3 -52 14q-93 50 -48 263q29 138 90 207.5
t150 69.5q75 0 108.5 -44t20.5 -126h-60q8 62 -11.5 91t-67.5 29q-55 0 -96.5 -49t-69.5 -179q-15 -72 -16 -119.5t12 -69.5t29 -30t40 -8q96 0 139 138z" />
    <glyph glyph-name="egrave" unicode="&#xe8;" horiz-adv-x="426" 
d="M165 313h226q18 97 -1 138.5t-75 41.5q-57 0 -93 -41.5t-57 -138.5zM361 176h60q-24 -86 -80.5 -137t-129.5 -51q-180 0 -120 278q29 138 90 207.5t150 69.5t117.5 -62t0.5 -196l-5 -22h-290l-5 -25q-22 -107 -0.5 -153.5t71.5 -46.5q98 0 141 138zM262 739h71l46 -141
h-48z" />
    <glyph glyph-name="eacute" unicode="&#xe9;" horiz-adv-x="426" 
d="M165 313h226q18 97 -1 138.5t-75 41.5q-57 0 -93 -41.5t-57 -138.5zM361 176h60q-24 -86 -80.5 -137t-129.5 -51q-180 0 -120 278q29 138 90 207.5t150 69.5t117.5 -62t0.5 -196l-5 -22h-290l-5 -25q-22 -107 -0.5 -153.5t71.5 -46.5q98 0 141 138zM418 739h71l-127 -141
h-48z" />
    <glyph glyph-name="ecircumflex" unicode="&#xea;" horiz-adv-x="426" 
d="M165 313h226q18 97 -1 138.5t-75 41.5q-57 0 -93 -41.5t-57 -138.5zM361 176h60q-24 -86 -80.5 -137t-129.5 -51q-180 0 -120 278q29 138 90 207.5t150 69.5t117.5 -62t0.5 -196l-5 -22h-290l-5 -25q-22 -107 -0.5 -153.5t71.5 -46.5q98 0 141 138zM272 598h-60l125 141
h60l67 -141h-60l-46 100z" />
    <glyph glyph-name="edieresis" unicode="&#xeb;" horiz-adv-x="426" 
d="M165 313h226q18 97 -1 138.5t-75 41.5q-57 0 -93 -41.5t-57 -138.5zM361 176h60q-24 -86 -80.5 -137t-129.5 -51q-180 0 -120 278q29 138 90 207.5t150 69.5t117.5 -62t0.5 -196l-5 -22h-290l-5 -25q-22 -107 -0.5 -153.5t71.5 -46.5q98 0 141 138zM384 617l21 102h60
l-21 -102h-60zM234 617l21 102h60l-21 -102h-60z" />
    <glyph glyph-name="igrave" unicode="&#xec;" horiz-adv-x="184" 
d="M62 0l110 531h60l-110 -531h-60zM120 739h71l46 -141h-48z" />
    <glyph glyph-name="iacute" unicode="&#xed;" horiz-adv-x="184" 
d="M62 0l110 531h60l-110 -531h-60zM288 739h71l-127 -141h-48z" />
    <glyph glyph-name="icircumflex" unicode="&#xee;" horiz-adv-x="184" 
d="M62 0l110 531h60l-110 -531h-60zM143 598h-60l125 141h60l67 -141h-60l-46 100z" />
    <glyph glyph-name="idieresis" unicode="&#xef;" horiz-adv-x="184" 
d="M62 0l110 531h60l-110 -531h-60zM261 617l21 102h60l-21 -102h-60zM111 617l21 102h60l-21 -102h-60z" />
    <glyph glyph-name="eth" unicode="&#xf0;" horiz-adv-x="426" 
d="M242 598l-32 32l84 44q-11 15 -59 68l53 32q35 -35 61 -72l81 42l30 -30l-84 -45q89 -125 89 -278q0 -55 -14 -125q-29 -139 -90.5 -208.5t-150.5 -69.5t-122 69t-4 203q27 131 88.5 201t139.5 70q60 0 87 -53l2 2q-35 90 -82 159zM148 260q-13 -59 -13 -104
q0 -118 85 -118q54 0 98 53t68 169q43 221 -73 221q-55 0 -98.5 -53t-66.5 -168z" />
    <glyph glyph-name="ntilde" unicode="&#xf1;" 
d="M58 0l110 531h54l-15 -74h2q62 86 153 86q64 0 93 -35t14 -107l-83 -401h-60l79 384q24 109 -68 109q-53 0 -92.5 -37t-52.5 -99l-74 -357h-60zM454 719h44q-9 -35 -37 -66.5t-61 -31.5q-25 0 -45 15l-34 21q-14 8 -22 8q-13 0 -26 -14.5t-20 -33.5h-44q8 34 37 66t59 32
q25 0 53 -18l23 -15q14 -11 28 -11q16 0 29 16.5t16 31.5z" />
    <glyph glyph-name="ograve" unicode="&#xf2;" horiz-adv-x="426" 
d="M149 266q-14 -67 -14 -108q0 -120 85 -120q117 0 167 228q13 61 13 106q0 121 -85 121q-119 0 -166 -227zM85 266q29 138 90 207.5t150 69.5t122 -70t4 -207q-29 -139 -90.5 -208.5t-150.5 -69.5t-121.5 69.5t-3.5 208.5zM253 739h71l46 -141h-48z" />
    <glyph glyph-name="oacute" unicode="&#xf3;" horiz-adv-x="426" 
d="M149 266q-14 -67 -14 -108q0 -120 85 -120q117 0 167 228q13 61 13 106q0 121 -85 121q-119 0 -166 -227zM85 266q29 138 90 207.5t150 69.5t122 -70t4 -207q-29 -139 -90.5 -208.5t-150.5 -69.5t-121.5 69.5t-3.5 208.5zM415 739h71l-127 -141h-48z" />
    <glyph glyph-name="ocircumflex" unicode="&#xf4;" horiz-adv-x="426" 
d="M149 266q-14 -67 -14 -108q0 -120 85 -120q117 0 167 228q13 61 13 106q0 121 -85 121q-119 0 -166 -227zM85 266q29 138 90 207.5t150 69.5t122 -70t4 -207q-29 -139 -90.5 -208.5t-150.5 -69.5t-121.5 69.5t-3.5 208.5zM270 598h-60l125 141h60l67 -141h-60l-46 100z
" />
    <glyph glyph-name="otilde" unicode="&#xf5;" horiz-adv-x="426" 
d="M149 266q-14 -67 -14 -108q0 -120 85 -120q117 0 167 228q13 61 13 106q0 121 -85 121q-119 0 -166 -227zM85 266q29 138 90 207.5t150 69.5t122 -70t4 -207q-29 -139 -90.5 -208.5t-150.5 -69.5t-121.5 69.5t-3.5 208.5zM442 719h44q-9 -35 -37 -66.5t-61 -31.5
q-25 0 -45 15l-34 21q-14 8 -22 8q-13 0 -26 -14.5t-20 -33.5h-44q8 34 37 66t59 32q25 0 53 -18l23 -15q14 -11 28 -11q16 0 29 16.5t16 31.5z" />
    <glyph glyph-name="odieresis" unicode="&#xf6;" horiz-adv-x="426" 
d="M149 266q-14 -67 -14 -108q0 -120 85 -120q117 0 167 228q13 61 13 106q0 121 -85 121q-119 0 -166 -227zM85 266q29 138 90 207.5t150 69.5t122 -70t4 -207q-29 -139 -90.5 -208.5t-150.5 -69.5t-121.5 69.5t-3.5 208.5zM391 617l21 102h60l-21 -102h-60zM241 617
l21 102h60l-21 -102h-60z" />
    <glyph glyph-name="divide" unicode="&#xf7;" horiz-adv-x="600" 
d="M254 47q5 23 24.5 39t42.5 16t35.5 -16t7.5 -39t-24 -39t-42 -16t-36 16t-8 39zM340 459q5 23 24 39t42 16t36 -16t8 -39t-24.5 -39t-42.5 -16t-35.5 16t-7.5 39zM94 228l10 50h506l-10 -50h-506z" />
    <glyph glyph-name="oslash" unicode="&#xf8;" horiz-adv-x="426" 
d="M88 -55l-34 15l48 76q-51 68 -17 230q29 138 90 207.5t150 69.5q50 0 81 -22l40 65l35 -16l-48 -75q51 -68 18 -229q-29 -139 -90.5 -208.5t-150.5 -69.5q-51 0 -80 23zM393 430l-230 -367q20 -25 57 -25q117 0 167 228q22 112 6 164zM142 101l231 368q-21 24 -58 24
q-119 0 -166 -227q-23 -111 -7 -165z" />
    <glyph glyph-name="ugrave" unicode="&#xf9;" 
d="M85 130l83 401h60l-78 -374q-14 -64 2 -91.5t65 -27.5q51 0 92 37.5t53 98.5l74 357h60l-110 -531h-54l15 74h-2q-62 -86 -154 -86q-64 0 -92.5 35t-13.5 107zM252 739h71l46 -141h-48z" />
    <glyph glyph-name="uacute" unicode="&#xfa;" 
d="M85 130l83 401h60l-78 -374q-14 -64 2 -91.5t65 -27.5q51 0 92 37.5t53 98.5l74 357h60l-110 -531h-54l15 74h-2q-62 -86 -154 -86q-64 0 -92.5 35t-13.5 107zM420 739h71l-127 -141h-48z" />
    <glyph glyph-name="ucircumflex" unicode="&#xfb;" 
d="M85 130l83 401h60l-78 -374q-14 -64 2 -91.5t65 -27.5q51 0 92 37.5t53 98.5l74 357h60l-110 -531h-54l15 74h-2q-62 -86 -154 -86q-64 0 -92.5 35t-13.5 107zM275 598h-60l125 141h60l67 -141h-60l-46 100z" />
    <glyph glyph-name="udieresis" unicode="&#xfc;" 
d="M85 130l83 401h60l-78 -374q-14 -64 2 -91.5t65 -27.5q51 0 92 37.5t53 98.5l74 357h60l-110 -531h-54l15 74h-2q-62 -86 -154 -86q-64 0 -92.5 35t-13.5 107zM387 617l21 102h60l-21 -102h-60zM237 617l21 102h60l-21 -102h-60z" />
    <glyph glyph-name="yacute" unicode="&#xfd;" horiz-adv-x="370" 
d="M158 -5l-41 536h64l23 -460h2l203 460h64l-274 -574q-38 -78 -73 -105.5t-96 -27.5q-17 0 -39 2l10 50q26 -2 38 -2q29 0 51 15.5t43 55.5zM393 739h71l-127 -141h-48z" />
    <glyph glyph-name="thorn" unicode="&#xfe;" 
d="M167 265q-15 -73 -15 -119q0 -62 22 -85t61 -23q54 0 95.5 47t68.5 180q15 73 15 119q0 63 -22.5 86t-61.5 23q-25 0 -45.5 -8.5t-43 -31t-41.5 -70t-33 -118.5zM15 -176l185 890h60l-56 -271h2q21 45 61 72.5t83 27.5q172 0 113 -278q-30 -139 -85.5 -208t-142.5 -69
q-50 0 -77 24.5t-28 67.5h-2l-53 -256h-60z" />
    <glyph glyph-name="ydieresis" unicode="&#xff;" horiz-adv-x="370" 
d="M158 -5l-41 536h64l23 -460h2l203 460h64l-274 -574q-38 -78 -73 -105.5t-96 -27.5q-17 0 -39 2l10 50q26 -2 38 -2q29 0 51 15.5t43 55.5zM351 617l21 102h60l-21 -102h-60zM201 617l21 102h60l-21 -102h-60z" />
    <glyph glyph-name="Amacron" unicode="&#x100;" horiz-adv-x="500" 
d="M-1 0l359 714h80l63 -714h-68l-15 208h-250l-101 -208h-68zM193 262h222l-26 402h-2zM289 820l9 44h238l-9 -44h-238z" />
    <glyph glyph-name="amacron" unicode="&#x101;" horiz-adv-x="426" 
d="M340 188l23 112h-2q-10 -18 -71 -35l-53 -13q-50 -12 -77.5 -37.5t-36.5 -72.5q-10 -48 6.5 -76t55.5 -28q56 0 98 39.5t57 110.5zM184 373h-60q36 170 199 170q153 0 121 -141l-65 -314q-9 -44 22 -44h17l-9 -44q-18 -6 -30 -6q-39 0 -55 13.5t-8 52.5l4 18h-2
q-51 -90 -156 -90q-68 0 -93.5 39.5t-10.5 110.5q25 117 138 147l119 32q34 8 46.5 23.5t22.5 60.5q19 92 -73 92q-102 0 -127 -120zM223 646l9 44h238l-9 -44h-238z" />
    <glyph glyph-name="Abreve" unicode="&#x102;" horiz-adv-x="500" 
d="M-1 0l359 714h80l63 -714h-68l-15 208h-250l-101 -208h-68zM193 262h222l-26 402h-2zM301 903h44q-3 -35 14 -58q17 -20 47 -20q31 0 56 20.5t37 57.5h44q-15 -56 -54.5 -89t-91.5 -33t-78 33t-18 89z" />
    <glyph glyph-name="abreve" unicode="&#x103;" horiz-adv-x="426" 
d="M340 188l23 112h-2q-10 -18 -71 -35l-53 -13q-50 -12 -77.5 -37.5t-36.5 -72.5q-10 -48 6.5 -76t55.5 -28q56 0 98 39.5t57 110.5zM184 373h-60q36 170 199 170q153 0 121 -141l-65 -314q-9 -44 22 -44h17l-9 -44q-18 -6 -30 -6q-39 0 -55 13.5t-8 52.5l4 18h-2
q-51 -90 -156 -90q-68 0 -93.5 39.5t-10.5 110.5q25 117 138 147l119 32q34 8 46.5 23.5t22.5 60.5q19 92 -73 92q-102 0 -127 -120zM226 729h44q-3 -35 14 -58q17 -20 47 -20q31 0 56 20.5t37 57.5h44q-15 -56 -54.5 -89t-91.5 -33t-78 33t-18 89z" />
    <glyph glyph-name="Aogonek" unicode="&#x104;" horiz-adv-x="500" 
d="M501 0h-21q-50 -45 -71 -71.5t-27 -51.5q-10 -42 32 -42q26 0 68 20l8 -29q-54 -29 -99 -29q-81 0 -68 69q17 66 110 134l-15 208h-250l-101 -208h-68l359 714h80zM193 262h222l-26 402h-2z" />
    <glyph glyph-name="aogonek" unicode="&#x105;" horiz-adv-x="426" 
d="M184 373h-60q36 170 199 170q153 0 121 -141l-65 -314q-9 -44 22 -44h17l-9 -44q-18 -6 -30 -6q-14 0 -21 1q-38 -36 -62 -63q-19 -23 -25 -52q-9 -47 44 -47q24 0 60 19l5 -29q-42 -26 -92 -26q-42 0 -60 21t-11 51q7 39 33 69q26 31 76 68q-18 13 -10 54l4 18h-2
q-51 -90 -156 -90q-68 0 -93.5 39.5t-10.5 110.5q25 117 138 147l119 32q34 8 46.5 23.5t22.5 60.5q19 92 -73 92q-102 0 -127 -120zM340 188l23 112h-2q-10 -18 -71 -35l-53 -13q-50 -12 -77.5 -37.5t-36.5 -72.5q-10 -48 6.5 -76t55.5 -28q56 0 98 39.5t57 110.5z" />
    <glyph glyph-name="Cacute" unicode="&#x106;" horiz-adv-x="519" 
d="M476 242h64q-32 -123 -100 -188.5t-165 -65.5q-227 0 -151 369t304 369q103 0 141.5 -62.5t18.5 -157.5h-64q15 75 -12.5 120.5t-94.5 45.5q-80 0 -137 -74t-92 -241q-25 -115 -18.5 -185t35 -100t81.5 -30q67 0 116 52.5t74 147.5zM513 913h71l-127 -141h-48z" />
    <glyph glyph-name="cacute" unicode="&#x107;" horiz-adv-x="407" 
d="M353 176h60q-24 -86 -79.5 -137t-128.5 -51q-180 0 -120 278q29 138 90 207.5t150 69.5q75 0 108.5 -44t20.5 -126h-60q8 62 -11.5 91t-67.5 29q-55 0 -96.5 -49t-69.5 -179q-15 -72 -16 -119.5t12 -69.5t29 -30t40 -8q96 0 139 138zM412 739h71l-127 -141h-48z" />
    <glyph glyph-name="Ccircumflex" unicode="&#x108;" horiz-adv-x="519" 
d="M476 242h64q-32 -123 -100 -188.5t-165 -65.5q-227 0 -151 369t304 369q103 0 141.5 -62.5t18.5 -157.5h-64q15 75 -12.5 120.5t-94.5 45.5q-80 0 -137 -74t-92 -241q-25 -115 -18.5 -185t35 -100t81.5 -30q67 0 116 52.5t74 147.5zM372 772h-60l125 141h60l67 -141h-60
l-46 100z" />
    <glyph glyph-name="ccircumflex" unicode="&#x109;" horiz-adv-x="407" 
d="M353 176h60q-24 -86 -79.5 -137t-128.5 -51q-180 0 -120 278q29 138 90 207.5t150 69.5q75 0 108.5 -44t20.5 -126h-60q8 62 -11.5 91t-67.5 29q-55 0 -96.5 -49t-69.5 -179q-15 -72 -16 -119.5t12 -69.5t29 -30t40 -8q96 0 139 138zM274 598h-60l125 141h60l67 -141h-60
l-46 100z" />
    <glyph glyph-name="Cdotaccent" unicode="&#x10a;" horiz-adv-x="519" 
d="M476 242h64q-32 -123 -100 -188.5t-165 -65.5q-227 0 -151 369t304 369q103 0 141.5 -62.5t18.5 -157.5h-64q15 75 -12.5 120.5t-94.5 45.5q-80 0 -137 -74t-92 -241q-25 -115 -18.5 -185t35 -100t81.5 -30q67 0 116 52.5t74 147.5zM406 791l21 102h60l-21 -102h-60z" />
    <glyph glyph-name="cdotaccent" unicode="&#x10b;" horiz-adv-x="407" 
d="M353 176h60q-24 -86 -79.5 -137t-128.5 -51q-180 0 -120 278q29 138 90 207.5t150 69.5q75 0 108.5 -44t20.5 -126h-60q8 62 -11.5 91t-67.5 29q-55 0 -96.5 -49t-69.5 -179q-15 -72 -16 -119.5t12 -69.5t29 -30t40 -8q96 0 139 138zM301 617l21 102h60l-21 -102h-60z
" />
    <glyph glyph-name="Ccaron" unicode="&#x10c;" horiz-adv-x="519" 
d="M476 242h64q-32 -123 -100 -188.5t-165 -65.5q-227 0 -151 369t304 369q103 0 141.5 -62.5t18.5 -157.5h-64q15 75 -12.5 120.5t-94.5 45.5q-80 0 -137 -74t-92 -241q-25 -115 -18.5 -185t35 -100t81.5 -30q67 0 116 52.5t74 147.5zM339 913h60l46 -101l88 101h60
l-127 -141h-60z" />
    <glyph glyph-name="ccaron" unicode="&#x10d;" horiz-adv-x="407" 
d="M353 176h60q-24 -86 -79.5 -137t-128.5 -51q-180 0 -120 278q29 138 90 207.5t150 69.5q75 0 108.5 -44t20.5 -126h-60q8 62 -11.5 91t-67.5 29q-55 0 -96.5 -49t-69.5 -179q-15 -72 -16 -119.5t12 -69.5t29 -30t40 -8q96 0 139 138zM236 739h60l46 -101l88 101h60
l-127 -141h-60z" />
    <glyph glyph-name="Dcaron" unicode="&#x10e;" horiz-adv-x="537" 
d="M257 660l-126 -606h104q108 0 167.5 66t94.5 236q26 116 17 183.5t-45 94t-108 26.5h-104zM56 0l148 714h172q102 0 151.5 -41t53.5 -120t-20 -196q-38 -186 -111.5 -271.5t-221.5 -85.5h-172zM286 913h60l46 -101l88 101h60l-127 -141h-60z" />
    <glyph glyph-name="dcaron" unicode="&#x10f;" horiz-adv-x="514" 
d="M155 266q-15 -74 -15 -119q0 -64 21.5 -86.5t61.5 -22.5q25 0 45.5 8.5t43 31t42 70t33.5 118.5q15 74 15 118q0 64 -22 86.5t-62 22.5q-26 0 -46.5 -8.5t-42.5 -31t-41 -69.5t-33 -118zM338 0l18 88h-2q-22 -46 -62.5 -73t-88.5 -27q-171 0 -112 278q30 140 85 208.5
t142 68.5q50 0 77 -24.5t28 -67.5h2l55 263h60l-148 -714h-54zM610 714h67l-79 -141h-42z" />
    <glyph glyph-name="Dcroat" unicode="&#x110;" horiz-adv-x="537" 
d="M203 400h160l-12 -54h-160l-60 -292h104q108 0 167.5 66t94.5 236q26 116 17 183.5t-45 94t-108 26.5h-104zM56 0l71 346h-56l12 54h56l65 314h172q102 0 151.5 -41t53.5 -120t-20 -196q-38 -186 -111.5 -271.5t-221.5 -85.5h-172z" />
    <glyph glyph-name="dcroat" unicode="&#x111;" horiz-adv-x="458" 
d="M338 0l18 88h-2q-22 -46 -62.5 -73t-88.5 -27q-171 0 -112 278q30 140 85 208.5t142 68.5q50 0 77 -24.5t28 -67.5h2l29 140h-117l9 44h117l17 79h60l-17 -79h81l-9 -44h-81l-122 -591h-54zM155 266q-15 -74 -15 -119q0 -64 21.5 -86.5t61.5 -22.5q25 0 45.5 8.5t43 31
t42 70t33.5 118.5q15 74 15 118q0 64 -22 86.5t-62 22.5q-26 0 -46.5 -8.5t-42.5 -31t-41 -69.5t-33 -118z" />
    <glyph glyph-name="Emacron" unicode="&#x112;" 
d="M56 0l148 714h354l-11 -54h-290l-54 -260h271l-12 -54h-271l-60 -292h299l-11 -54h-363zM272 820l9 44h238l-9 -44h-238z" />
    <glyph glyph-name="emacron" unicode="&#x113;" horiz-adv-x="426" 
d="M165 313h226q18 97 -1 138.5t-75 41.5q-57 0 -93 -41.5t-57 -138.5zM361 176h60q-24 -86 -80.5 -137t-129.5 -51q-180 0 -120 278q29 138 90 207.5t150 69.5t117.5 -62t0.5 -196l-5 -22h-290l-5 -25q-22 -107 -0.5 -153.5t71.5 -46.5q98 0 141 138zM229 646l9 44h238
l-9 -44h-238z" />
    <glyph glyph-name="Ebreve" unicode="&#x114;" 
d="M56 0l148 714h354l-11 -54h-290l-54 -260h271l-12 -54h-271l-60 -292h299l-11 -54h-363zM280 903h44q-3 -35 14 -58q17 -20 47 -20q31 0 56 20.5t37 57.5h44q-15 -56 -54.5 -89t-91.5 -33t-78 33t-18 89z" />
    <glyph glyph-name="ebreve" unicode="&#x115;" horiz-adv-x="426" 
d="M165 313h226q18 97 -1 138.5t-75 41.5q-57 0 -93 -41.5t-57 -138.5zM361 176h60q-24 -86 -80.5 -137t-129.5 -51q-180 0 -120 278q29 138 90 207.5t150 69.5t117.5 -62t0.5 -196l-5 -22h-290l-5 -25q-22 -107 -0.5 -153.5t71.5 -46.5q98 0 141 138zM237 729h44
q-3 -35 14 -58q17 -20 47 -20q31 0 56 20.5t37 57.5h44q-15 -56 -54.5 -89t-91.5 -33t-78 33t-18 89z" />
    <glyph glyph-name="Edotaccent" unicode="&#x116;" 
d="M56 0l148 714h354l-11 -54h-290l-54 -260h271l-12 -54h-271l-60 -292h299l-11 -54h-363zM358 791l21 102h60l-21 -102h-60z" />
    <glyph glyph-name="edotaccent" unicode="&#x117;" horiz-adv-x="426" 
d="M165 313h226q18 97 -1 138.5t-75 41.5q-57 0 -93 -41.5t-57 -138.5zM361 176h60q-24 -86 -80.5 -137t-129.5 -51q-180 0 -120 278q29 138 90 207.5t150 69.5t117.5 -62t0.5 -196l-5 -22h-290l-5 -25q-22 -107 -0.5 -153.5t71.5 -46.5q98 0 141 138zM312 617l21 102h60
l-21 -102h-60z" />
    <glyph glyph-name="Eogonek" unicode="&#x118;" 
d="M419 0h-56q-50 -45 -71 -71.5t-27 -51.5q-11 -42 32 -42q26 0 68 20l8 -29q-54 -29 -99 -29q-81 0 -68 69q17 66 110 134h-260l148 714h354l-11 -54h-290l-54 -260h271l-12 -54h-271l-60 -292h299z" />
    <glyph glyph-name="eogonek" unicode="&#x119;" horiz-adv-x="426" 
d="M361 176h60q-37 -131 -140 -175q-16 -5 -28 -8q-42 -39 -63 -65q-20 -26 -26 -51q-10 -42 32 -42q26 0 68 20l8 -29q-54 -29 -99 -29q-81 0 -68 69q8 33 36 67q24 28 58 55q-35 2 -60 15q-93 50 -48 263q29 138 90 207.5t150 69.5t117.5 -62t0.5 -196l-5 -22h-290l-5 -25
q-22 -107 -0.5 -153.5t71.5 -46.5q98 0 141 138zM165 313h226q18 97 -1 138.5t-75 41.5q-57 0 -93 -41.5t-57 -138.5z" />
    <glyph glyph-name="Ecaron" unicode="&#x11a;" 
d="M56 0l148 714h354l-11 -54h-290l-54 -260h271l-12 -54h-271l-60 -292h299l-11 -54h-363zM286 913h60l46 -101l88 101h60l-127 -141h-60z" />
    <glyph glyph-name="ecaron" unicode="&#x11b;" horiz-adv-x="426" 
d="M165 313h226q18 97 -1 138.5t-75 41.5q-57 0 -93 -41.5t-57 -138.5zM361 176h60q-24 -86 -80.5 -137t-129.5 -51q-180 0 -120 278q29 138 90 207.5t150 69.5t117.5 -62t0.5 -196l-5 -22h-290l-5 -25q-22 -107 -0.5 -153.5t71.5 -46.5q98 0 141 138zM238 739h60l46 -101
l88 101h60l-127 -141h-60z" />
    <glyph glyph-name="Gcircumflex" unicode="&#x11c;" horiz-adv-x="537" 
d="M491 310h-169l11 54h229l-75 -364h-50l24 118h-2q-29 -60 -79.5 -95t-104.5 -35q-227 0 -151 369t304 369q97 0 136.5 -57.5t24.5 -154.5h-64q15 68 -13 113t-95 45q-80 0 -137 -74t-92 -241q-25 -115 -18.5 -185t35 -100t81.5 -30q73 0 124.5 64t77.5 189zM369 772h-60
l125 141h60l67 -141h-60l-46 100z" />
    <glyph glyph-name="gcircumflex" unicode="&#x11d;" 
d="M156 272q-23 -128 -6 -175t73 -47q57 0 96 50t63 172q23 126 6 173.5t-73 47.5t-95 -50t-64 -171zM425 449l17 82h54l-103 -493q-24 -112 -77 -167t-143 -55q-76 0 -109.5 35.5t-21.5 94.5h60q-7 -36 18 -58t66 -22q111 0 142 145l17 84h-2q-47 -95 -143 -95
q-165 0 -109 266q30 140 85 208.5t142 68.5q44 0 72 -24.5t33 -69.5h2zM294 598h-60l125 141h60l67 -141h-60l-46 100z" />
    <glyph glyph-name="Gbreve" unicode="&#x11e;" horiz-adv-x="537" 
d="M491 310h-169l11 54h229l-75 -364h-50l24 118h-2q-29 -60 -79.5 -95t-104.5 -35q-227 0 -151 369t304 369q97 0 136.5 -57.5t24.5 -154.5h-64q15 68 -13 113t-95 45q-80 0 -137 -74t-92 -241q-25 -115 -18.5 -185t35 -100t81.5 -30q73 0 124.5 64t77.5 189zM339 903h44
q-3 -35 14 -58q17 -20 47 -20q31 0 56 20.5t37 57.5h44q-15 -56 -54.5 -89t-91.5 -33t-78 33t-18 89z" />
    <glyph glyph-name="gbreve" unicode="&#x11f;" 
d="M156 272q-23 -128 -6 -175t73 -47q57 0 96 50t63 172q23 126 6 173.5t-73 47.5t-95 -50t-64 -171zM425 449l17 82h54l-103 -493q-24 -112 -77 -167t-143 -55q-76 0 -109.5 35.5t-21.5 94.5h60q-7 -36 18 -58t66 -22q111 0 142 145l17 84h-2q-47 -95 -143 -95
q-165 0 -109 266q30 140 85 208.5t142 68.5q44 0 72 -24.5t33 -69.5h2zM252 729h44q-3 -35 14 -58q17 -20 47 -20q31 0 56 20.5t37 57.5h44q-15 -56 -54.5 -89t-91.5 -33t-78 33t-18 89z" />
    <glyph glyph-name="Gdotaccent" unicode="&#x120;" horiz-adv-x="537" 
d="M491 310h-169l11 54h229l-75 -364h-50l24 118h-2q-29 -60 -79.5 -95t-104.5 -35q-227 0 -151 369t304 369q97 0 136.5 -57.5t24.5 -154.5h-64q15 68 -13 113t-95 45q-80 0 -137 -74t-92 -241q-25 -115 -18.5 -185t35 -100t81.5 -30q73 0 124.5 64t77.5 189zM408 791
l21 102h60l-21 -102h-60z" />
    <glyph glyph-name="gdotaccent" unicode="&#x121;" 
d="M156 272q-23 -128 -6 -175t73 -47q57 0 96 50t63 172q23 126 6 173.5t-73 47.5t-95 -50t-64 -171zM425 449l17 82h54l-103 -493q-24 -112 -77 -167t-143 -55q-76 0 -109.5 35.5t-21.5 94.5h60q-7 -36 18 -58t66 -22q111 0 142 145l17 84h-2q-47 -95 -143 -95
q-165 0 -109 266q30 140 85 208.5t142 68.5q44 0 72 -24.5t33 -69.5h2zM319 617l21 102h60l-21 -102h-60z" />
    <glyph glyph-name="Gcommaaccent" unicode="&#x122;" horiz-adv-x="537" 
d="M491 310h-169l11 54h229l-75 -364h-50l24 118h-2q-29 -60 -79.5 -95t-104.5 -35q-227 0 -151 369t304 369q97 0 136.5 -57.5t24.5 -154.5h-64q15 68 -13 113t-95 45q-80 0 -137 -74t-92 -241q-25 -115 -18.5 -185t35 -100t81.5 -30q73 0 124.5 64t77.5 189zM236 -142
l19 92h65l-17 -84q-13 -65 -80 -69l5 23q12 4 17 7t10 10t8 21h-27z" />
    <glyph glyph-name="gcommaaccent" unicode="&#x123;" 
d="M156 272q-23 -128 -6 -175t73 -47q57 0 96 50t63 172q23 126 6 173.5t-73 47.5t-95 -50t-64 -171zM425 449l17 82h54l-103 -493q-24 -112 -77 -167t-143 -55q-76 0 -109.5 35.5t-21.5 94.5h60q-7 -36 18 -58t66 -22q111 0 142 145l17 84h-2q-47 -95 -143 -95
q-165 0 -109 266q30 140 85 208.5t142 68.5q44 0 72 -24.5t33 -69.5h2zM403 714l-19 -92h-65l17 84q13 65 80 69l-5 -23q-12 -4 -17 -7t-10 -10t-8 -21h27z" />
    <glyph glyph-name="Hcircumflex" unicode="&#x124;" horiz-adv-x="519" 
d="M399 0l74 356h-279l-74 -356h-64l148 714h64l-63 -304h279l63 304h64l-148 -714h-64zM347 772h-60l125 141h60l67 -141h-60l-46 100z" />
    <glyph glyph-name="hcircumflex" unicode="&#x125;" 
d="M58 0l148 714h60l-53 -257h2q20 41 59 63.5t88 22.5q64 0 93 -35t14 -107l-83 -401h-60l79 384q24 109 -68 109q-53 0 -92.5 -37t-52.5 -99l-74 -357h-60zM302 772h-60l125 141h60l67 -141h-60l-46 100z" />
    <glyph glyph-name="Hbar" unicode="&#x126;" horiz-adv-x="519" 
d="M399 0l72 346h-279l-72 -346h-64l148 714h64l-38 -183h279l38 183h64l-148 -714h-64zM203 400h279l18 87h-279z" />
    <glyph glyph-name="hbar" unicode="&#x127;" horiz-adv-x="460" 
d="M115 591l9 44h81l17 79h60l-17 -79h107l-9 -44h-107l-27 -134h2q20 41 59 63.5t88 22.5q64 0 93 -35t14 -107l-83 -401h-60l79 384q24 109 -68 109q-53 0 -92.5 -37t-52.5 -99l-74 -357h-60l122 591h-81z" />
    <glyph glyph-name="Itilde" unicode="&#x128;" horiz-adv-x="184" 
d="M60 0l148 714h64l-148 -714h-64zM360 893h44q-9 -35 -37 -66.5t-61 -31.5q-25 0 -45 15l-34 21q-14 8 -22 8q-13 0 -26 -14.5t-20 -33.5h-44q8 34 37 66t59 32q25 0 53 -18l23 -15q14 -11 28 -11q16 0 29 16.5t16 31.5z" />
    <glyph glyph-name="itilde" unicode="&#x129;" horiz-adv-x="184" 
d="M62 0l110 531h60l-110 -531h-60zM322 719h44q-9 -35 -37 -66.5t-61 -31.5q-25 0 -45 15l-34 21q-14 8 -22 8q-13 0 -26 -14.5t-20 -33.5h-44q8 34 37 66t59 32q25 0 53 -18l23 -15q14 -11 28 -11q16 0 29 16.5t16 31.5z" />
    <glyph glyph-name="Imacron" unicode="&#x12a;" horiz-adv-x="184" 
d="M60 0l148 714h64l-148 -714h-64zM133 820l9 44h238l-9 -44h-238z" />
    <glyph glyph-name="imacron" unicode="&#x12b;" horiz-adv-x="184" 
d="M62 0l110 531h60l-110 -531h-60zM98 646l9 44h238l-9 -44h-238z" />
    <glyph glyph-name="Iogonek" unicode="&#x12e;" horiz-adv-x="184" 
d="M272 714l-148 -714q-46 -45 -65.5 -71.5t-24.5 -51.5q-9 -42 29 -42q25 0 63 20l7 -29q-50 -29 -91 -29q-73 0 -63 69q17 67 102 134h-21l148 714h64z" />
    <glyph glyph-name="iogonek" unicode="&#x12f;" horiz-adv-x="184" 
d="M232 531l-110 -531q-45 -45 -64 -71.5t-24 -51.5q-9 -42 29 -42q24 0 61 20l7 -29q-48 -29 -89 -29q-74 0 -61 69q14 66 99 134h-18l110 531h60zM189 612l21 102h60l-21 -102h-60z" />
    <glyph glyph-name="Idotaccent" unicode="&#x130;" horiz-adv-x="184" 
d="M60 0l148 714h64l-148 -714h-64zM224 791l21 102h60l-21 -102h-60z" />
    <glyph glyph-name="dotlessi" unicode="&#x131;" horiz-adv-x="184" 
d="M62 0l110 531h60l-110 -531h-60z" />
    <glyph glyph-name="Jcircumflex" unicode="&#x134;" horiz-adv-x="407" 
d="M56 180l6 29h64l-4 -17q-17 -73 -2 -111.5t66 -38.5q55 0 88.5 31.5t50.5 112.5l110 528h64l-111 -535q-42 -191 -210 -191q-80 0 -111.5 45.5t-10.5 146.5zM406 772h-60l125 141h60l67 -141h-60l-46 100z" />
    <glyph glyph-name="jcircumflex" unicode="&#x135;" horiz-adv-x="184" 
d="M53 -42l119 573h60l-123 -593q-25 -122 -140 -122q-19 0 -32 3l10 50q21 -3 23 -3q33 0 52.5 19.5t30.5 72.5zM141 598h-60l125 141h60l67 -141h-60l-46 100z" />
    <glyph glyph-name="Kcommaaccent" unicode="&#x136;" horiz-adv-x="480" 
d="M56 0l148 714h64l-78 -374h2l351 374h68l-280 -298l156 -416h-68l-139 362l-109 -112l-51 -250h-64zM199 -142l19 92h65l-17 -84q-13 -65 -80 -69l5 23q12 4 17 7t10 10t8 21h-27z" />
    <glyph glyph-name="kcommaaccent" unicode="&#x137;" horiz-adv-x="407" 
d="M52 0l148 714h60l-93 -447h2l261 264h74l-201 -197l120 -334h-74l-100 280l-99 -94l-38 -186h-60zM168 -142l19 92h65l-17 -84q-13 -65 -80 -69l5 23q12 4 17 7t10 10t8 21h-27z" />
    <glyph glyph-name="Lacute" unicode="&#x139;" horiz-adv-x="426" 
d="M56 0l148 714h64l-137 -660h296l-11 -54h-360zM326 913h71l-127 -141h-48z" />
    <glyph glyph-name="lacute" unicode="&#x13a;" horiz-adv-x="184" 
d="M62 0l148 714h60l-148 -714h-60zM324 913h71l-127 -141h-48z" />
    <glyph glyph-name="Lcommaaccent" unicode="&#x13b;" horiz-adv-x="426" 
d="M56 0l148 714h64l-137 -660h296l-11 -54h-360zM173 -142l19 92h65l-17 -84q-13 -65 -80 -69l5 23q12 4 17 7t10 10t8 21h-27z" />
    <glyph glyph-name="lcommaaccent" unicode="&#x13c;" horiz-adv-x="184" 
d="M62 0l148 714h60l-148 -714h-60zM32 -142l19 92h65l-17 -84q-13 -65 -80 -69l5 23q12 4 17 7t10 10t8 21h-27z" />
    <glyph glyph-name="Lcaron" unicode="&#x13d;" horiz-adv-x="426" 
d="M56 0l148 714h64l-137 -660h296l-11 -54h-360zM365 714h67l-79 -141h-42z" />
    <glyph glyph-name="lcaron" unicode="&#x13e;" horiz-adv-x="244" 
d="M62 0l148 714h60l-148 -714h-60zM340 714h67l-79 -141h-42z" />
    <glyph glyph-name="Ldot" unicode="&#x13f;" horiz-adv-x="426" 
d="M56 0l148 714h64l-137 -660h296l-11 -54h-360zM302 429l21 102h60l-21 -102h-60z" />
    <glyph glyph-name="ldot" unicode="&#x140;" horiz-adv-x="262" 
d="M62 0l148 714h60l-148 -714h-60zM271 429l21 102h60l-21 -102h-60z" />
    <glyph glyph-name="Lslash" unicode="&#x141;" horiz-adv-x="426" 
d="M56 0l59 286l-80 -48l12 60l80 48l77 368h64l-67 -324l212 127l-12 -60l-213 -127l-57 -276h296l-11 -54h-360z" />
    <glyph glyph-name="lslash" unicode="&#x142;" horiz-adv-x="184" 
d="M62 0l65 316l-76 -66l13 60l76 66l70 338h60l-57 -274l76 66l-13 -60l-75 -66l-79 -380h-60z" />
    <glyph glyph-name="Nacute" unicode="&#x143;" horiz-adv-x="537" 
d="M56 0l148 714h86l144 -622h2l129 622h64l-148 -714h-86l-144 622h-2l-129 -622h-64zM496 913h71l-127 -141h-48z" />
    <glyph glyph-name="nacute" unicode="&#x144;" 
d="M58 0l110 531h54l-15 -74h2q62 86 153 86q64 0 93 -35t14 -107l-83 -401h-60l79 384q24 109 -68 109q-53 0 -92.5 -37t-52.5 -99l-74 -357h-60zM410 739h71l-127 -141h-48z" />
    <glyph glyph-name="Ncommaaccent" unicode="&#x145;" horiz-adv-x="537" 
d="M56 0l148 714h86l144 -622h2l129 622h64l-148 -714h-86l-144 622h-2l-129 -622h-64zM218 -142l19 92h65l-17 -84q-13 -65 -80 -69l5 23q12 4 17 7t10 10t8 21h-27z" />
    <glyph glyph-name="ncommaaccent" unicode="&#x146;" 
d="M58 0l110 531h54l-15 -74h2q62 86 153 86q64 0 93 -35t14 -107l-83 -401h-60l79 384q24 109 -68 109q-53 0 -92.5 -37t-52.5 -99l-74 -357h-60zM168 -142l19 92h65l-17 -84q-13 -65 -80 -69l5 23q12 4 17 7t10 10t8 21h-27z" />
    <glyph glyph-name="Ncaron" unicode="&#x147;" horiz-adv-x="537" 
d="M56 0l148 714h86l144 -622h2l129 622h64l-148 -714h-86l-144 622h-2l-129 -622h-64zM323 913h60l46 -101l88 101h60l-127 -141h-60z" />
    <glyph glyph-name="ncaron" unicode="&#x148;" 
d="M58 0l110 531h54l-15 -74h2q62 86 153 86q64 0 93 -35t14 -107l-83 -401h-60l79 384q24 109 -68 109q-53 0 -92.5 -37t-52.5 -99l-74 -357h-60zM228 739h60l46 -101l88 101h60l-127 -141h-60z" />
    <glyph glyph-name="Omacron" unicode="&#x14c;" horiz-adv-x="556" 
d="M188 357q-25 -115 -18.5 -185t35 -100t81.5 -30q165 0 230 315q32 174 6.5 244.5t-105.5 70.5t-137 -74t-92 -241zM124 357q76 369 304 369t152 -369q-79 -369 -305 -369q-227 0 -151 369zM331 820l9 44h238l-9 -44h-238z" />
    <glyph glyph-name="omacron" unicode="&#x14d;" horiz-adv-x="426" 
d="M149 266q-14 -67 -14 -108q0 -120 85 -120q117 0 167 228q13 61 13 106q0 121 -85 121q-119 0 -166 -227zM85 266q29 138 90 207.5t150 69.5t122 -70t4 -207q-29 -139 -90.5 -208.5t-150.5 -69.5t-121.5 69.5t-3.5 208.5zM225 646l9 44h238l-9 -44h-238z" />
    <glyph glyph-name="Obreve" unicode="&#x14e;" horiz-adv-x="556" 
d="M188 357q-25 -115 -18.5 -185t35 -100t81.5 -30q165 0 230 315q32 174 6.5 244.5t-105.5 70.5t-137 -74t-92 -241zM124 357q76 369 304 369t152 -369q-79 -369 -305 -369q-227 0 -151 369zM340 903h44q-3 -35 14 -58q17 -20 47 -20q31 0 56 20.5t37 57.5h44
q-15 -56 -54.5 -89t-91.5 -33t-78 33t-18 89z" />
    <glyph glyph-name="obreve" unicode="&#x14f;" horiz-adv-x="426" 
d="M149 266q-14 -67 -14 -108q0 -120 85 -120q117 0 167 228q13 61 13 106q0 121 -85 121q-119 0 -166 -227zM85 266q29 138 90 207.5t150 69.5t122 -70t4 -207q-29 -139 -90.5 -208.5t-150.5 -69.5t-121.5 69.5t-3.5 208.5zM240 729h44q-3 -35 14 -58q17 -20 47 -20
q31 0 56 20.5t37 57.5h44q-15 -56 -54.5 -89t-91.5 -33t-78 33t-18 89z" />
    <glyph glyph-name="Ohungarumlaut" unicode="&#x150;" horiz-adv-x="556" 
d="M188 357q-25 -115 -18.5 -185t35 -100t81.5 -30q165 0 230 315q32 174 6.5 244.5t-105.5 70.5t-137 -74t-92 -241zM124 357q76 369 304 369t152 -369q-79 -369 -305 -369q-227 0 -151 369zM591 913h71l-127 -141h-47zM440 913h71l-127 -141h-47z" />
    <glyph glyph-name="ohungarumlaut" unicode="&#x151;" horiz-adv-x="426" 
d="M149 266q-14 -67 -14 -108q0 -120 85 -120q117 0 167 228q13 61 13 106q0 121 -85 121q-119 0 -166 -227zM85 266q29 138 90 207.5t150 69.5t122 -70t4 -207q-29 -139 -90.5 -208.5t-150.5 -69.5t-121.5 69.5t-3.5 208.5zM490 739h71l-127 -141h-47zM339 739h71
l-127 -141h-47z" />
    <glyph glyph-name="OE" unicode="&#x152;" horiz-adv-x="778" 
d="M546 656l12 58h339l-11 -54h-275l-54 -260h256l-12 -54h-256l-60 -292h284l-11 -54h-348l13 64h-2q-48 -76 -154 -76q-227 0 -151 369t304 369q100 0 124 -70h2zM459 237l53 254q22 102 -3 141.5t-100 39.5q-80 0 -137 -74t-92 -241q-25 -115 -18.5 -185t35 -100
t81.5 -30q74 0 116.5 45t64.5 150z" />
    <glyph glyph-name="oe" unicode="&#x153;" horiz-adv-x="704" 
d="M457 313h210q37 180 -68 180q-102 0 -142 -180zM157 266q-14 -67 -14 -108q0 -120 81 -120q113 0 163 228q13 61 13 106q0 121 -81 121q-52 0 -94.5 -54t-67.5 -173zM637 176h60q-24 -90 -77 -139t-125 -49q-48 0 -77.5 24.5t-37.5 85.5h-2q-53 -110 -160 -110
q-89 0 -121.5 69.5t-3.5 208.5q29 138 90 207.5t150 69.5q53 0 85 -28t35 -83h2q52 111 161 111q88 0 112 -69t-8 -211h-274l-6 -29q-19 -101 -1.5 -148.5t64.5 -47.5q44 0 82 39t52 99z" />
    <glyph glyph-name="Racute" unicode="&#x154;" horiz-adv-x="500" 
d="M257 660l-58 -280h110q160 0 189 140q15 69 -13 104.5t-111 35.5h-117zM56 0l148 714h213q89 0 127 -47t21 -132q-34 -156 -167 -181v-2q64 -6 83 -45.5t4 -123.5l-15 -78q-13 -74 9 -105h-75q-12 27 1 100l11 60q16 98 -4 132t-104 34h-121l-67 -326h-64zM447 913h71
l-127 -141h-48z" />
    <glyph glyph-name="racute" unicode="&#x155;" horiz-adv-x="278" 
d="M58 0l110 531h60l-17 -83h2q55 95 153 95q10 0 21 -3l-13 -60q-14 3 -28 3q-54 0 -99 -39t-60 -112l-69 -332h-60zM296 739h71l-127 -141h-48z" />
    <glyph glyph-name="Rcommaaccent" unicode="&#x156;" horiz-adv-x="500" 
d="M257 660l-58 -280h110q160 0 189 140q15 69 -13 104.5t-111 35.5h-117zM56 0l148 714h213q89 0 127 -47t21 -132q-34 -156 -167 -181v-2q64 -6 83 -45.5t4 -123.5l-15 -78q-13 -74 9 -105h-75q-12 27 1 100l11 60q16 98 -4 132t-104 34h-121l-67 -326h-64zM199 -142
l19 92h65l-17 -84q-13 -65 -80 -69l5 23q12 4 17 7t10 10t8 21h-27z" />
    <glyph glyph-name="rcommaaccent" unicode="&#x157;" horiz-adv-x="278" 
d="M58 0l110 531h60l-17 -83h2q55 95 153 95q10 0 21 -3l-13 -60q-14 3 -28 3q-54 0 -99 -39t-60 -112l-69 -332h-60zM29 -142l19 92h65l-17 -84q-13 -65 -80 -69l5 23q12 4 17 7t10 10t8 21h-27z" />
    <glyph glyph-name="Rcaron" unicode="&#x158;" horiz-adv-x="500" 
d="M257 660l-58 -280h110q160 0 189 140q15 69 -13 104.5t-111 35.5h-117zM56 0l148 714h213q89 0 127 -47t21 -132q-34 -156 -167 -181v-2q64 -6 83 -45.5t4 -123.5l-15 -78q-13 -74 9 -105h-75q-12 27 1 100l11 60q16 98 -4 132t-104 34h-121l-67 -326h-64zM288 913h60
l46 -101l88 101h60l-127 -141h-60z" />
    <glyph glyph-name="rcaron" unicode="&#x159;" horiz-adv-x="278" 
d="M58 0l110 531h60l-17 -83h2q55 95 153 95q10 0 21 -3l-13 -60q-14 3 -28 3q-54 0 -99 -39t-60 -112l-69 -332h-60zM182 739h60l46 -101l88 101h60l-127 -141h-60z" />
    <glyph glyph-name="Sacute" unicode="&#x15a;" horiz-adv-x="480" 
d="M543 531h-64q30 141 -99 141q-63 0 -107 -36.5t-54 -91.5q-9 -43 4 -72.5t40.5 -45.5t61.5 -28.5t68 -26t60.5 -32.5t38 -55t0.5 -87q-21 -102 -89.5 -155.5t-169.5 -53.5q-102 0 -144 53.5t-20 158.5l4 21h64l-5 -27q-15 -71 12.5 -111.5t97.5 -40.5q71 0 120.5 36.5
t63.5 108.5q9 43 -4 72.5t-40.5 45t-61.5 27.5t-68 26t-60.5 33.5t-38 56.5t-0.5 89q18 85 81 137t155 52q195 0 154 -195zM471 913h71l-127 -141h-48z" />
    <glyph glyph-name="sacute" unicode="&#x15b;" horiz-adv-x="389" 
d="M274 231l-78 33q-93 39 -75 126q17 78 67 115.5t122 37.5q147 0 116 -148l-3 -15h-60l3 15q21 98 -67 98q-97 0 -116 -90q-6 -31 5 -52t49 -37l80 -33q91 -37 71 -135q-15 -71 -65.5 -114.5t-131.5 -43.5q-84 0 -115.5 38.5t-13.5 126.5l4 17h60l-3 -14q-24 -118 77 -118
q49 0 82.5 25t42.5 70q16 69 -51 98zM396 739h71l-127 -141h-48z" />
    <glyph glyph-name="Scircumflex" unicode="&#x15c;" horiz-adv-x="480" 
d="M543 531h-64q30 141 -99 141q-63 0 -107 -36.5t-54 -91.5q-9 -43 4 -72.5t40.5 -45.5t61.5 -28.5t68 -26t60.5 -32.5t38 -55t0.5 -87q-21 -102 -89.5 -155.5t-169.5 -53.5q-102 0 -144 53.5t-20 158.5l4 21h64l-5 -27q-15 -71 12.5 -111.5t97.5 -40.5q71 0 120.5 36.5
t63.5 108.5q9 43 -4 72.5t-40.5 45t-61.5 27.5t-68 26t-60.5 33.5t-38 56.5t-0.5 89q18 85 81 137t155 52q195 0 154 -195zM334 772h-60l125 141h60l67 -141h-60l-46 100z" />
    <glyph glyph-name="scircumflex" unicode="&#x15d;" horiz-adv-x="389" 
d="M274 231l-78 33q-93 39 -75 126q17 78 67 115.5t122 37.5q147 0 116 -148l-3 -15h-60l3 15q21 98 -67 98q-97 0 -116 -90q-6 -31 5 -52t49 -37l80 -33q91 -37 71 -135q-15 -71 -65.5 -114.5t-131.5 -43.5q-84 0 -115.5 38.5t-13.5 126.5l4 17h60l-3 -14q-24 -118 77 -118
q49 0 82.5 25t42.5 70q16 69 -51 98zM254 598h-60l125 141h60l67 -141h-60l-46 100z" />
    <glyph glyph-name="Scedilla" unicode="&#x15e;" horiz-adv-x="480" 
d="M543 531h-64q30 141 -99 141q-63 0 -107 -36.5t-54 -91.5q-9 -43 4 -72.5t40.5 -45.5t61.5 -28.5t68 -26t60.5 -32.5t38 -55t0.5 -87q-16 -76 -59.5 -126t-108.5 -70q-33 -10 -71 -12l-43 -44l2 -1q11 5 35 5q32 0 50 -19.5t13 -47.5q-9 -39 -47 -62t-77 -23
q-49 0 -84 20l19 31q28 -15 56 -15q69 0 78 44q4 18 -10 27t-36 9q-27 0 -46 -10l-9 17l63 69q-89 5 -128 52q-42 53 -20 159l4 21h64l-5 -27q-15 -71 12.5 -111.5t97.5 -40.5q71 0 120.5 36.5t63.5 108.5q9 43 -4 72.5t-40.5 45t-61.5 27.5t-68 26t-60.5 33.5t-38 56.5
t-0.5 89q18 85 81 137t155 52q195 0 154 -195z" />
    <glyph glyph-name="Scedilla" unicode="&#xf6c1;" horiz-adv-x="480" 
d="M543 531h-64q30 141 -99 141q-63 0 -107 -36.5t-54 -91.5q-9 -43 4 -72.5t40.5 -45.5t61.5 -28.5t68 -26t60.5 -32.5t38 -55t0.5 -87q-16 -76 -59.5 -126t-108.5 -70q-33 -10 -71 -12l-43 -44l2 -1q11 5 35 5q32 0 50 -19.5t13 -47.5q-9 -39 -47 -62t-77 -23
q-49 0 -84 20l19 31q28 -15 56 -15q69 0 78 44q4 18 -10 27t-36 9q-27 0 -46 -10l-9 17l63 69q-89 5 -128 52q-42 53 -20 159l4 21h64l-5 -27q-15 -71 12.5 -111.5t97.5 -40.5q71 0 120.5 36.5t63.5 108.5q9 43 -4 72.5t-40.5 45t-61.5 27.5t-68 26t-60.5 33.5t-38 56.5
t-0.5 89q18 85 81 137t155 52q195 0 154 -195z" />
    <glyph glyph-name="scedilla" unicode="&#x15f;" horiz-adv-x="389" 
d="M274 231l-78 33q-93 39 -75 126q17 78 67 115.5t122 37.5q147 0 116 -148l-3 -15h-60l3 15q21 98 -67 98q-97 0 -116 -90q-6 -31 5 -52t49 -37l80 -33q91 -37 71 -135q-22 -110 -122 -146q-29 -11 -61 -12l-43 -43l2 -1q11 5 35 5q32 0 50 -19.5t13 -47.5q-9 -39 -47 -62
t-77 -23q-49 0 -84 20l19 31q28 -15 56 -15q69 0 78 44q4 18 -10 27t-36 9q-27 0 -46 -10l-9 17l63 69q-65 5 -93 36q-33 38 -14 128l4 17h60l-3 -14q-24 -118 77 -118q49 0 82.5 25t42.5 70q16 69 -51 98z" />
    <glyph glyph-name="scedilla" unicode="&#xf6c2;" horiz-adv-x="389" 
d="M274 231l-78 33q-93 39 -75 126q17 78 67 115.5t122 37.5q147 0 116 -148l-3 -15h-60l3 15q21 98 -67 98q-97 0 -116 -90q-6 -31 5 -52t49 -37l80 -33q91 -37 71 -135q-22 -110 -122 -146q-29 -11 -61 -12l-43 -43l2 -1q11 5 35 5q32 0 50 -19.5t13 -47.5q-9 -39 -47 -62
t-77 -23q-49 0 -84 20l19 31q28 -15 56 -15q69 0 78 44q4 18 -10 27t-36 9q-27 0 -46 -10l-9 17l63 69q-65 5 -93 36q-33 38 -14 128l4 17h60l-3 -14q-24 -118 77 -118q49 0 82.5 25t42.5 70q16 69 -51 98z" />
    <glyph glyph-name="Scaron" unicode="&#x160;" horiz-adv-x="480" 
d="M543 531h-64q30 141 -99 141q-63 0 -107 -36.5t-54 -91.5q-9 -43 4 -72.5t40.5 -45.5t61.5 -28.5t68 -26t60.5 -32.5t38 -55t0.5 -87q-21 -102 -89.5 -155.5t-169.5 -53.5q-102 0 -144 53.5t-20 158.5l4 21h64l-5 -27q-15 -71 12.5 -111.5t97.5 -40.5q71 0 120.5 36.5
t63.5 108.5q9 43 -4 72.5t-40.5 45t-61.5 27.5t-68 26t-60.5 33.5t-38 56.5t-0.5 89q18 85 81 137t155 52q195 0 154 -195zM303 913h60l46 -101l88 101h60l-127 -141h-60z" />
    <glyph glyph-name="scaron" unicode="&#x161;" horiz-adv-x="389" 
d="M274 231l-78 33q-93 39 -75 126q17 78 67 115.5t122 37.5q147 0 116 -148l-3 -15h-60l3 15q21 98 -67 98q-97 0 -116 -90q-6 -31 5 -52t49 -37l80 -33q91 -37 71 -135q-15 -71 -65.5 -114.5t-131.5 -43.5q-84 0 -115.5 38.5t-13.5 126.5l4 17h60l-3 -14q-24 -118 77 -118
q49 0 82.5 25t42.5 70q16 69 -51 98zM213 739h60l46 -101l88 101h60l-127 -141h-60z" />
    <glyph glyph-name="Tcommaaccent" unicode="&#x162;" 
d="M190 0l137 660h-184l11 54h432l-11 -54h-184l-137 -660h-64zM161 -142l19 92h65l-17 -84q-13 -65 -80 -69l5 23q12 4 17 7t10 10t8 21h-27z" />
    <glyph glyph-name="tcommaaccent" unicode="&#x163;" horiz-adv-x="241" 
d="M98 87l82 394h-73l10 50h73l30 147h60l-30 -147h94l-10 -50h-94l-80 -381q-6 -31 5 -43.5t41 -12.5q17 0 38 6l-10 -50q-12 -6 -44 -6q-62 0 -82.5 20t-9.5 73zM98 -142l19 92h65l-17 -84q-13 -65 -80 -69l5 23q12 4 17 7t10 10t8 21h-27z" />
    <glyph glyph-name="Tcaron" unicode="&#x164;" 
d="M190 0l137 660h-184l11 54h432l-11 -54h-184l-137 -660h-64zM279 913h60l46 -101l88 101h60l-127 -141h-60z" />
    <glyph glyph-name="tcaron" unicode="&#x165;" horiz-adv-x="300" 
d="M386 714h67l-79 -141h-42zM98 87l82 394h-73l10 50h73l30 147h60l-30 -147h94l-10 -50h-94l-80 -381q-6 -31 5 -43.5t41 -12.5q17 0 38 6l-10 -50q-12 -6 -44 -6q-62 0 -82.5 20t-9.5 73z" />
    <glyph glyph-name="Tbar" unicode="&#x166;" 
d="M159 442l9 44h122l37 174h-184l11 54h432l-11 -54h-184l-36 -174h124l-9 -44h-124l-92 -442h-64l91 442h-122z" />
    <glyph glyph-name="tbar" unicode="&#x167;" horiz-adv-x="241" 
d="M63 320l9 44h83l25 117h-73l10 50h73l30 147h60l-30 -147h94l-10 -50h-94l-25 -117h102l-9 -44h-102l-46 -220q-6 -31 5 -43.5t41 -12.5q17 0 38 6l-10 -50q-12 -6 -44 -6q-62 0 -82.5 20t-9.5 73l48 233h-83z" />
    <glyph glyph-name="Utilde" unicode="&#x168;" horiz-adv-x="500" 
d="M87 200l107 514h64l-107 -513q-33 -159 107 -159t173 159l107 513h64l-107 -514q-23 -111 -84.5 -161.5t-163.5 -50.5t-142.5 50.5t-17.5 161.5zM513 893h44q-9 -35 -37 -66.5t-61 -31.5q-25 0 -45 15l-34 21q-14 8 -22 8q-13 0 -26 -14.5t-20 -33.5h-44q8 34 37 66
t59 32q25 0 53 -18l23 -15q14 -11 28 -11q16 0 29 16.5t16 31.5z" />
    <glyph glyph-name="utilde" unicode="&#x169;" 
d="M85 130l83 401h60l-78 -374q-14 -64 2 -91.5t65 -27.5q51 0 92 37.5t53 98.5l74 357h60l-110 -531h-54l15 74h-2q-62 -86 -154 -86q-64 0 -92.5 35t-13.5 107zM453 719h44q-9 -35 -37 -66.5t-61 -31.5q-25 0 -45 15l-34 21q-14 8 -22 8q-13 0 -26 -14.5t-20 -33.5h-44
q8 34 37 66t59 32q25 0 53 -18l23 -15q14 -11 28 -11q16 0 29 16.5t16 31.5z" />
    <glyph glyph-name="Umacron" unicode="&#x16a;" horiz-adv-x="500" 
d="M87 200l107 514h64l-107 -513q-33 -159 107 -159t173 159l107 513h64l-107 -514q-23 -111 -84.5 -161.5t-163.5 -50.5t-142.5 50.5t-17.5 161.5zM293 820l9 44h238l-9 -44h-238z" />
    <glyph glyph-name="umacron" unicode="&#x16b;" 
d="M85 130l83 401h60l-78 -374q-14 -64 2 -91.5t65 -27.5q51 0 92 37.5t53 98.5l74 357h60l-110 -531h-54l15 74h-2q-62 -86 -154 -86q-64 0 -92.5 35t-13.5 107zM231 646l9 44h238l-9 -44h-238z" />
    <glyph glyph-name="Ubreve" unicode="&#x16c;" horiz-adv-x="500" 
d="M87 200l107 514h64l-107 -513q-33 -159 107 -159t173 159l107 513h64l-107 -514q-23 -111 -84.5 -161.5t-163.5 -50.5t-142.5 50.5t-17.5 161.5zM302 903h44q-3 -35 14 -58q17 -20 47 -20q31 0 56 20.5t37 57.5h44q-15 -56 -54.5 -89t-91.5 -33t-78 33t-18 89z" />
    <glyph glyph-name="ubreve" unicode="&#x16d;" 
d="M85 130l83 401h60l-78 -374q-14 -64 2 -91.5t65 -27.5q51 0 92 37.5t53 98.5l74 357h60l-110 -531h-54l15 74h-2q-62 -86 -154 -86q-64 0 -92.5 35t-13.5 107zM239 729h44q-3 -35 14 -58q17 -20 47 -20q31 0 56 20.5t37 57.5h44q-15 -56 -54.5 -89t-91.5 -33t-78 33
t-18 89z" />
    <glyph glyph-name="Uring" unicode="&#x16e;" horiz-adv-x="500" 
d="M87 200l107 514h64l-107 -513q-33 -159 107 -159t173 159l107 513h64l-107 -514q-23 -111 -84.5 -161.5t-163.5 -50.5t-142.5 50.5t-17.5 161.5zM355 834q-5 -25 8.5 -42t38.5 -17t45.5 17t25.5 42t-8.5 42t-38.5 17t-45.5 -17t-25.5 -42zM319 834q8 40 41 66t77 26
q37 0 58.5 -27t13.5 -65q-8 -41 -41.5 -66.5t-76.5 -25.5q-37 0 -58.5 27t-13.5 65z" />
    <glyph glyph-name="uring" unicode="&#x16f;" 
d="M85 130l83 401h60l-78 -374q-14 -64 2 -91.5t65 -27.5q51 0 92 37.5t53 98.5l74 357h60l-110 -531h-54l15 74h-2q-62 -86 -154 -86q-64 0 -92.5 35t-13.5 107zM296 684q-5 -25 8.5 -42t38.5 -17t45.5 17t25.5 42t-8.5 42t-38.5 17t-45.5 -17t-25.5 -42zM260 684
q8 40 41 66t77 26q37 0 58.5 -27t13.5 -65q-8 -41 -41.5 -66.5t-76.5 -25.5q-37 0 -58.5 27t-13.5 65z" />
    <glyph glyph-name="Uhungarumlaut" unicode="&#x170;" horiz-adv-x="500" 
d="M87 200l107 514h64l-107 -513q-33 -159 107 -159t173 159l107 513h64l-107 -514q-23 -111 -84.5 -161.5t-163.5 -50.5t-142.5 50.5t-17.5 161.5zM554 913h71l-127 -141h-47zM403 913h71l-127 -141h-47z" />
    <glyph glyph-name="uhungarumlaut" unicode="&#x171;" 
d="M85 130l83 401h60l-78 -374q-14 -64 2 -91.5t65 -27.5q51 0 92 37.5t53 98.5l74 357h60l-110 -531h-54l15 74h-2q-62 -86 -154 -86q-64 0 -92.5 35t-13.5 107zM494 739h71l-127 -141h-47zM343 739h71l-127 -141h-47z" />
    <glyph glyph-name="Uogonek" unicode="&#x172;" horiz-adv-x="500" 
d="M87 200l107 514h64l-107 -513q-33 -159 107 -159t173 159l107 513h64l-107 -514q-23 -113 -86 -163q-51 -39 -127 -47q-40 -38 -60 -62q-20 -26 -26 -51q-10 -42 32 -42q26 0 68 20l8 -29q-54 -29 -99 -29q-81 0 -68 69q8 33 36 67q22 27 58 56q-88 3 -125 48
q-42 49 -19 163z" />
    <glyph glyph-name="uogonek" unicode="&#x173;" 
d="M386 0h-9q-47 -45 -67 -71.5t-26 -51.5q-10 -42 30 -42q27 0 65 20l8 -29q-51 -29 -95 -29q-33 0 -52 16t-12 53q13 63 104 134l15 74h-2q-62 -86 -154 -86q-64 0 -92.5 35t-13.5 107l83 401h60l-78 -374q-14 -64 2 -91.5t65 -27.5q51 0 92 37.5t53 98.5l74 357h60z" />
    <glyph glyph-name="Wcircumflex" unicode="&#x174;" horiz-adv-x="722" 
d="M162 0l-3 714h64l-6 -628h2l253 628h74l-9 -628h2l256 628h64l-299 -714h-80l12 628h-2l-248 -628h-80zM449 772h-60l125 141h60l67 -141h-60l-46 100z" />
    <glyph glyph-name="wcircumflex" unicode="&#x175;" horiz-adv-x="592" 
d="M128 0l-8 531h64l-8 -471h2l194 471h74l-8 -471h2l188 471h64l-228 -531h-71l1 471h-2l-193 -471h-71zM354 598h-60l125 141h60l67 -141h-60l-46 100z" />
    <glyph glyph-name="Ycircumflex" unicode="&#x176;" 
d="M190 0l59 286l-104 428h68l83 -356l231 356h68l-282 -428l-59 -286h-64zM311 772h-60l125 141h60l67 -141h-60l-46 100z" />
    <glyph glyph-name="ycircumflex" unicode="&#x177;" horiz-adv-x="370" 
d="M158 -5l-41 536h64l23 -460h2l203 460h64l-274 -574q-38 -78 -73 -105.5t-96 -27.5q-17 0 -39 2l10 50q26 -2 38 -2q29 0 51 15.5t43 55.5zM240 598h-60l125 141h60l67 -141h-60l-46 100z" />
    <glyph glyph-name="Ydieresis" unicode="&#x178;" 
d="M190 0l59 286l-104 428h68l83 -356l231 356h68l-282 -428l-59 -286h-64zM422 791l21 102h60l-21 -102h-60zM272 791l21 102h60l-21 -102h-60z" />
    <glyph glyph-name="Zacute" unicode="&#x179;" horiz-adv-x="462" 
d="M22 0l12 60l473 600h-328l11 54h393l-13 -60l-466 -600h347l-11 -54h-418zM456 913h71l-127 -141h-48z" />
    <glyph glyph-name="zacute" unicode="&#x17a;" horiz-adv-x="352" 
d="M18 0l10 50l342 431h-239l10 50h303l-10 -50l-342 -431h252l-10 -50h-316zM369 739h71l-127 -141h-48z" />
    <glyph glyph-name="Zdotaccent" unicode="&#x17b;" horiz-adv-x="462" 
d="M22 0l12 60l473 600h-328l11 54h393l-13 -60l-466 -600h347l-11 -54h-418zM357 791l21 102h60l-21 -102h-60z" />
    <glyph glyph-name="zdotaccent" unicode="&#x17c;" horiz-adv-x="352" 
d="M18 0l10 50l342 431h-239l10 50h303l-10 -50l-342 -431h252l-10 -50h-316zM270 617l21 102h60l-21 -102h-60z" />
    <glyph glyph-name="Zcaron" unicode="&#x17d;" horiz-adv-x="462" 
d="M22 0l12 60l473 600h-328l11 54h393l-13 -60l-466 -600h347l-11 -54h-418zM287 913h60l46 -101l88 101h60l-127 -141h-60z" />
    <glyph glyph-name="zcaron" unicode="&#x17e;" horiz-adv-x="352" 
d="M18 0l10 50l342 431h-239l10 50h303l-10 -50l-342 -431h252l-10 -50h-316zM195 739h60l46 -101l88 101h60l-127 -141h-60z" />
    <glyph glyph-name="florin" unicode="&#x192;" horiz-adv-x="480" 
d="M194 397l17 44h105l53 130q58 143 190 143q25 0 46 -4l-21 -50q-12 4 -26 4q-51 0 -83 -27t-69 -121l-30 -75h112l-17 -44h-112l-152 -382q-42 -107 -86.5 -149t-117.5 -42q-34 0 -51 7l22 50q14 -7 30 -7q51 0 79 28.5t71 133.5l145 361h-105z" />
    <glyph glyph-name="Scommaaccent" unicode="&#x218;" horiz-adv-x="480" 
d="M543 531h-64q30 141 -99 141q-63 0 -107 -36.5t-54 -91.5q-9 -43 4 -72.5t40.5 -45.5t61.5 -28.5t68 -26t60.5 -32.5t38 -55t0.5 -87q-21 -102 -89.5 -155.5t-169.5 -53.5q-102 0 -144 53.5t-20 158.5l4 21h64l-5 -27q-15 -71 12.5 -111.5t97.5 -40.5q71 0 120.5 36.5
t63.5 108.5q9 43 -4 72.5t-40.5 45t-61.5 27.5t-68 26t-60.5 33.5t-38 56.5t-0.5 89q18 85 81 137t155 52q195 0 154 -195zM181 -142l19 92h65l-17 -84q-13 -65 -80 -69l5 23q12 4 17 7t10 10t8 21h-27z" />
    <glyph glyph-name="scommaaccent" unicode="&#x219;" horiz-adv-x="389" 
d="M274 231l-78 33q-93 39 -75 126q17 78 67 115.5t122 37.5q147 0 116 -148l-3 -15h-60l3 15q21 98 -67 98q-97 0 -116 -90q-6 -31 5 -52t49 -37l80 -33q91 -37 71 -135q-15 -71 -65.5 -114.5t-131.5 -43.5q-84 0 -115.5 38.5t-13.5 126.5l4 17h60l-3 -14q-24 -118 77 -118
q49 0 82.5 25t42.5 70q16 69 -51 98zM135 -142l19 92h65l-17 -84q-13 -65 -80 -69l5 23q12 4 17 7t10 10t8 21h-27z" />
    <glyph glyph-name="uni021A" unicode="&#x21a;" 
d="M190 0l137 660h-184l11 54h432l-11 -54h-184l-137 -660h-64zM161 -142l19 92h65l-17 -84q-13 -65 -80 -69l5 23q12 4 17 7t10 10t8 21h-27z" />
    <glyph glyph-name="uni021B" unicode="&#x21b;" horiz-adv-x="241" 
d="M98 87l82 394h-73l10 50h73l30 147h60l-30 -147h94l-10 -50h-94l-80 -381q-6 -31 5 -43.5t41 -12.5q17 0 38 6l-10 -50q-12 -6 -44 -6q-62 0 -82.5 20t-9.5 73zM98 -142l19 92h65l-17 -84q-13 -65 -80 -69l5 23q12 4 17 7t10 10t8 21h-27z" />
    <glyph glyph-name="circumflex" unicode="&#x2c6;" horiz-adv-x="186" 
d="M149 598h-60l125 141h60l67 -141h-60l-46 100z" />
    <glyph glyph-name="caron" unicode="&#x2c7;" horiz-adv-x="186" 
d="M117 739h60l46 -101l88 101h60l-127 -141h-60z" />
    <glyph glyph-name="uni02C9" unicode="&#x2c9;" horiz-adv-x="186" 
d="M106 646l9 44h238l-9 -44h-238z" />
    <glyph glyph-name="breve" unicode="&#x2d8;" horiz-adv-x="186" 
d="M120 729h44q-3 -35 14 -58q17 -20 47 -20q31 0 56 20.5t37 57.5h44q-15 -56 -54.5 -89t-91.5 -33t-78 33t-18 89z" />
    <glyph glyph-name="dotaccent" unicode="&#x2d9;" horiz-adv-x="186" 
d="M189 617l21 102h60l-21 -102h-60z" />
    <glyph glyph-name="ring" unicode="&#x2da;" horiz-adv-x="186" 
d="M173 684q-5 -25 8.5 -42t38.5 -17t45.5 17t25.5 42t-8.5 42t-38.5 17t-45.5 -17t-25.5 -42zM137 684q8 40 41 66t77 26q37 0 58.5 -27t13.5 -65q-8 -41 -41.5 -66.5t-76.5 -25.5q-37 0 -58.5 27t-13.5 65z" />
    <glyph glyph-name="ogonek" unicode="&#x2db;" horiz-adv-x="186" 
d="M92 0h47q-50 -45 -71 -71.5t-27 -51.5q-11 -42 32 -42q26 0 68 20l8 -29q-54 -29 -99 -29q-81 0 -68 69q17 66 110 134z" />
    <glyph glyph-name="tilde" unicode="&#x2dc;" horiz-adv-x="186" 
d="M330 719h44q-9 -35 -37 -66.5t-61 -31.5q-25 0 -45 15l-34 21q-14 8 -22 8q-13 0 -26 -14.5t-20 -33.5h-44q8 34 37 66t59 32q25 0 53 -18l23 -15q14 -11 28 -11q16 0 29 16.5t16 31.5z" />
    <glyph glyph-name="hungarumlaut" unicode="&#x2dd;" horiz-adv-x="186" 
d="M351 739h71l-127 -141h-47zM200 739h71l-127 -141h-47z" />
    <glyph glyph-name="uni0394" unicode="&#x394;" horiz-adv-x="667" 
d="M581 0h-635l436 712h62zM510 52l-108 602l-367 -602h475z" />
    <glyph glyph-name="uni03A9" unicode="&#x3a9;" horiz-adv-x="741" 
d="M699 455q0 -125 -69.5 -209.5t-191.5 -105.5l-20 -95h199l-10 -45h-244l38 179q58 9 75 15q81 26 125 98.5t44 162.5q0 100 -63 158.5t-164 58.5q-129 0 -218 -95.5t-89 -225.5q0 -72 38 -118.5t108 -53.5l-38 -179h-237l10 45h189l21 98q-72 23 -108.5 78.5t-36.5 134.5
q0 146 108.5 255.5t253.5 109.5q122 0 201 -72.5t79 -193.5z" />
    <glyph glyph-name="uni03BC" unicode="&#x3bc;" 
d="M21 -176l147 707h60l-78 -374q-14 -64 2 -91.5t65 -27.5q51 0 92 37.5t53 98.5l74 357h60l-110 -531h-54l15 74h-2q-62 -86 -154 -86q-59 0 -69 24h-2l-39 -188h-60z" />
    <glyph glyph-name="pi" unicode="&#x3c0;" horiz-adv-x="556" 
d="M550 476l-10 -48h-77l-67 -315q-8 -43 -8 -50q0 -22 28 -22q20 0 47 11l-8 -42q-37 -16 -62 -16t-43 12.5t-18 36.5q0 13 10 65l68 320h-266l-91 -428h-54l91 428h-75l10 48h525z" />
    <glyph glyph-name="endash" unicode="&#x2013;" horiz-adv-x="500" 
d="M64 311h500l-11 -54h-500z" />
    <glyph glyph-name="emdash" unicode="&#x2014;" horiz-adv-x="1000" 
d="M64 311h1000l-11 -54h-1000z" />
    <glyph glyph-name="quoteleft" unicode="&#x2018;" horiz-adv-x="240" 
d="M181 474l21 102q12 53 34.5 87.5t68.5 50.5l-8 -40q-23 -12 -35 -33.5t-21 -64.5h29l-21 -102h-68z" />
    <glyph glyph-name="quoteright" unicode="&#x2019;" horiz-adv-x="240" 
d="M216 612l21 102h68l-21 -102q-12 -53 -34.5 -87.5t-68.5 -50.5l8 40q23 12 35 33.5t21 64.5h-29z" />
    <glyph glyph-name="quotesinglbase" unicode="&#x201a;" horiz-adv-x="240" 
d="M89 0l21 102h68l-21 -102q-12 -53 -34.5 -87.5t-68.5 -50.5l8 40q38 21 56 98h-29z" />
    <glyph glyph-name="quotedblleft" unicode="&#x201c;" horiz-adv-x="352" 
d="M171 474l21 102q12 53 34.5 87.5t68.5 50.5l-8 -40q-23 -12 -35 -33.5t-21 -64.5h29l-21 -102h-68zM303 474l21 102q12 53 34.5 87.5t68.5 50.5l-8 -40q-23 -12 -35 -33.5t-21 -64.5h29l-21 -102h-68z" />
    <glyph glyph-name="quotedblright" unicode="&#x201d;" horiz-adv-x="352" 
d="M338 612l21 102h68l-21 -102q-12 -53 -34.5 -87.5t-68.5 -50.5l8 40q23 12 35 33.5t21 64.5h-29zM206 612l21 102h68l-21 -102q-12 -53 -34.5 -87.5t-68.5 -50.5l8 40q23 12 35 33.5t21 64.5h-29z" />
    <glyph glyph-name="quotedblbase" unicode="&#x201e;" horiz-adv-x="352" 
d="M211 0l21 102h68l-21 -102q-12 -53 -34.5 -87.5t-68.5 -50.5l8 40q38 21 56 98h-29zM79 0l21 102h68l-21 -102q-12 -53 -34.5 -87.5t-68.5 -50.5l8 40q38 21 56 98h-29z" />
    <glyph glyph-name="dagger" unicode="&#x2020;" horiz-adv-x="480" 
d="M311 490l47 224h60l-47 -224h176l-10 -50h-176l-122 -585h-60l122 585h-176l10 50h176z" />
    <glyph glyph-name="daggerdbl" unicode="&#x2021;" horiz-adv-x="480" 
d="M358 714h60l-43 -206h176l-10 -50h-176l-72 -347h176l-11 -50h-176l-43 -206h-60l43 206h-176l11 50h176l72 347h-176l10 50h176z" />
    <glyph glyph-name="bullet" unicode="&#x2022;" horiz-adv-x="500" 
d="M146 357q14 74 77.5 126t137.5 52q75 0 115 -51.5t26 -126.5q-16 -74 -78.5 -126t-136.5 -52t-115.5 52t-25.5 126z" />
    <glyph glyph-name="ellipsis" unicode="&#x2026;" horiz-adv-x="1000" 
d="M799 0l21 102h68l-21 -102h-68zM466 0l21 102h68l-21 -102h-68zM133 0l21 102h68l-21 -102h-68z" />
    <glyph glyph-name="perthousand" unicode="&#x2030;" horiz-adv-x="1000" 
d="M730 172q21 103 61 143.5t104 40.5t86 -40.5t1 -143.5t-61 -143.5t-103 -40.5q-64 0 -86.5 40.5t-1.5 143.5zM784 172q-27 -140 43 -140q74 0 101 140q14 80 3 110t-46 30q-73 0 -101 -140zM429 172q21 103 61 143.5t104 40.5t86 -40.5t1 -143.5t-61 -143.5t-103 -40.5
q-64 0 -86.5 40.5t-1.5 143.5zM161 524q23 103 62 143.5t103 40.5t87 -40.5t0 -143.5q-21 -103 -61 -143.5t-103 -40.5q-64 0 -86.5 40.5t-1.5 143.5zM483 172q-27 -140 43 -140q74 0 101 140q14 80 3 110t-46 30q-73 0 -101 -140zM170 -12l457 720h50l-457 -720h-50z
M215 524q-27 -140 43 -140q74 0 101 140q28 140 -42 140q-74 0 -102 -140z" />
    <glyph glyph-name="guilsinglleft" unicode="&#x2039;" horiz-adv-x="241" 
d="M110 254l13 60l154 139l-14 -68l-110 -101l68 -101l-15 -68z" />
    <glyph glyph-name="guilsinglright" unicode="&#x203a;" horiz-adv-x="241" 
d="M81 115l15 68l110 101l-68 101l14 68l96 -139l-13 -60z" />
    <glyph glyph-name="fraction" unicode="&#x2044;" horiz-adv-x="167" 
d="M-173 -30l607 756h50l-607 -756h-50z" />
    <glyph glyph-name="Euro" unicode="&#x20ac;" horiz-adv-x="480" 
d="M615 665l-36 -55q-35 24 -61.5 35.5t-62.5 11.5q-43 0 -78 -17.5t-59 -49t-40.5 -65t-29.5 -75.5h257l-29 -54h-243q-1 -6 -4 -16t-4 -16l-6 -32h229l-31 -54h-209q-4 -32 -5.5 -56t-0.5 -54t8.5 -51t21 -40.5t37.5 -29t57 -9.5q40 0 72.5 15.5t78.5 48.5l-15 -73
q-69 -41 -147 -41q-65 0 -106.5 23.5t-56.5 63.5t-18.5 92.5t6.5 110.5h-69l30 54h49l6 32q2 6 4 16t4 16h-68l29 54h54q82 260 291 260q72 0 145 -45z" />
    <glyph glyph-name="afii61289" unicode="&#x2113;" horiz-adv-x="500" 
d="M449 628q0 -152 -238 -351q-37 -163 -37 -191q0 -32 17 -46t40 -14q43 0 100 42h2l14 -31q-67 -51 -128 -51q-44 0 -70.5 23t-26.5 68q0 25 31 163l-72 -63h-2l-17 30l101 83l57 269q17 82 55.5 122t88.5 40q38 0 61.5 -26t23.5 -67zM405 625q0 25 -13 42t-33 17
q-61 0 -86 -116l-52 -240q72 68 128 148t56 149z" />
    <glyph glyph-name="trademark" unicode="&#x2122;" horiz-adv-x="990" 
d="M733 380l197 334h86l-86 -412h-50l77 368h-2l-226 -368h-30l-72 368h-2l-77 -368h-50l86 412h86zM239 302l77 368h-135l9 44h320l-9 -44h-135l-77 -368h-50z" />
    <glyph glyph-name="Omega" unicode="&#x2126;" horiz-adv-x="741" 
d="M699 455q0 -125 -69.5 -209.5t-191.5 -105.5l-20 -95h199l-10 -45h-244l38 179q58 9 75 15q81 26 125 98.5t44 162.5q0 100 -63 158.5t-164 58.5q-129 0 -218 -95.5t-89 -225.5q0 -72 38 -118.5t108 -53.5l-38 -179h-237l10 45h189l21 98q-72 23 -108.5 78.5t-36.5 134.5
q0 146 108.5 255.5t253.5 109.5q122 0 201 -72.5t79 -193.5z" />
    <glyph glyph-name="estimated" unicode="&#x212e;" horiz-adv-x="600" 
d="M561 259h-404v-181q59 -59 145 -59q122 0 193 120l35 -21q-46 -72 -98 -103.5t-130 -31.5q-115 0 -186.5 79t-71.5 197q0 119 71 197.5t187 78.5q115 0 186.5 -77t72.5 -199zM157 295h291v145q-63 60 -147 60t-144 -60v-145z" />
    <glyph glyph-name="partialdiff" unicode="&#x2202;" horiz-adv-x="481" 
d="M424 365q0 -49 -4 -94.5t-18 -99t-36.5 -92.5t-63.5 -65t-95 -26q-88 0 -141 66t-53 157q0 89 51 150t138 61q50 0 95 -25t76 -66q0 9 0.5 28t0.5 28q0 47 -9 93.5t-29 91.5t-58 73t-89 28q-52 0 -110 -45l-30 37q61 56 138 56q55 0 103 -28q134 -79 134 -328zM367 275
q-29 41 -72.5 70t-88.5 29q-66 0 -104 -48.5t-38 -115.5q0 -68 39 -122.5t104 -54.5q42 0 73.5 24t49 63t26 77t11.5 78z" />
    <glyph glyph-name="Delta" unicode="&#x2206;" horiz-adv-x="667" 
d="M581 0h-635l436 712h62zM510 52l-108 602l-367 -602h475z" />
    <glyph glyph-name="product" unicode="&#x220f;" horiz-adv-x="704" 
d="M631 -214h-54v948h-450v-948h-54v1000h558v-1000z" />
    <glyph glyph-name="summation" unicode="&#x2211;" horiz-adv-x="593" 
d="M567 -214h-541v47l335 455l-321 451v47h515v-52h-447l318 -446l-337 -451h478v-51z" />
    <glyph glyph-name="minus" unicode="&#x2212;" horiz-adv-x="600" 
d="M94 228l10 50h506l-10 -50h-506z" />
    <glyph glyph-name="uni2215" unicode="&#x2215;" horiz-adv-x="167" 
d="M-173 -30l607 756h50l-607 -756h-50z" />
    <glyph glyph-name="uni2219" unicode="&#x2219;" horiz-adv-x="240" 
d="M133 328q5 23 24 39t42 16t36 -16t8 -39t-24.5 -39t-42.5 -16t-35.5 16t-7.5 39z" />
    <glyph glyph-name="radical" unicode="&#x221a;" horiz-adv-x="481" 
d="M458 786l-209 -1000h-56l-168 346l-45 -22l-19 40l88 43l166 -346l194 939h49z" />
    <glyph glyph-name="infinity" unicode="&#x221e;" horiz-adv-x="722" 
d="M654 250q0 -61 -36 -100.5t-96 -39.5q-50 0 -93.5 28t-94.5 77q-6 -5 -32.5 -28t-37.5 -30.5t-33.5 -21.5t-42.5 -19.5t-43 -5.5q-59 0 -96 39t-37 98t36.5 99.5t94.5 40.5q16 0 31.5 -3t31.5 -11t27 -14t28 -20t24.5 -20t26 -22.5t22.5 -20.5q10 9 39.5 36t45.5 39
t44.5 24.5t56.5 12.5q59 0 96.5 -39t37.5 -99zM606 246q0 41 -22 67.5t-63 26.5q-26 0 -59 -19t-47.5 -32t-47.5 -43q2 -2 16.5 -14.5t18.5 -15.5t17.5 -14t20 -14.5t19 -11t21.5 -10.5t21 -5.5t23 -2.5q38 0 60 25t22 63zM300 246q-7 6 -33 27t-41 32.5t-39.5 22.5
t-44.5 11q-37 0 -59.5 -27t-22.5 -65q0 -40 23.5 -64.5t62.5 -24.5q61 0 154 88z" />
    <glyph glyph-name="integral" unicode="&#x222b;" horiz-adv-x="537" 
d="M395 742q0 -14 -9.5 -23t-23.5 -9q-13 0 -21 6t-10.5 14t-6.5 14t-9 6q-10 0 -17.5 -9t-12 -26t-7 -35t-3 -41t-1 -38t0 -33t0.5 -20v-501v-9q0 -31 -0.5 -49.5t-3.5 -53t-10.5 -56.5t-19.5 -45.5t-33.5 -35.5t-49.5 -12q-23 0 -39 11.5t-16 33.5q0 14 9 23t23 9
q10 0 16.5 -4t9 -8t7.5 -13.5t7 -13.5q4 -2 6 -2q40 0 40 188v495q0 9 -0.5 36t-1 44.5t1.5 45.5t6 47t12 41t20 35.5t31.5 22.5t43.5 9q25 0 43 -10.5t18 -33.5z" />
    <glyph glyph-name="approxequal" unicode="&#x2248;" horiz-adv-x="593" 
d="M530 390q-6 -55 -35.5 -92t-82.5 -37q-46 0 -146.5 37t-136.5 37q-34 0 -56 -24t-27 -59h-38q22 131 118 131q45 0 145.5 -37t138.5 -37q35 0 55.5 22.5t27.5 58.5h37zM530 229q-6 -54 -36 -91.5t-82 -37.5q-47 0 -146.5 37t-136.5 37q-34 0 -56 -24t-27 -59h-38
q22 131 118 131q46 0 146 -37t138 -37q35 0 55.5 22.5t27.5 58.5h37z" />
    <glyph glyph-name="notequal" unicode="&#x2260;" horiz-adv-x="593" 
d="M517 125h-288l-75 -141l-42 23l64 118h-156v48h182l71 135h-253v48h280l77 145l42 -22l-66 -123h164v-48h-189l-73 -135h262v-48z" />
    <glyph glyph-name="lessequal" unicode="&#x2264;" horiz-adv-x="593" 
d="M517 67l-497 193v54l497 193v-54l-431 -166l431 -166v-54zM517 -25h-497v48h497v-48z" />
    <glyph glyph-name="greaterequal" unicode="&#x2265;" horiz-adv-x="593" 
d="M517 260l-497 -193v54l430 166l-430 166v54l497 -193v-54zM517 -25h-497v48h497v-48z" />
    <glyph glyph-name="lozenge" unicode="&#x25ca;" horiz-adv-x="593" 
d="M491 356l-169 -391h-53l-167 391l167 391h53zM438 356l-142 335l-140 -335l140 -335z" />
    <glyph glyph-name="commaaccent" unicode="&#xf004;" horiz-adv-x="240" 
d="M40 -142l19 92h65l-17 -84q-13 -65 -80 -69l5 23q12 4 17 7t10 10t8 21h-27z" />
    <glyph glyph-name="commaaccent" unicode="&#xf6c3;" horiz-adv-x="240" 
d="M40 -142l19 92h65l-17 -84q-13 -65 -80 -69l5 23q12 4 17 7t10 10t8 21h-27z" />
    <glyph glyph-name="dotlessj" unicode="&#xf6be;" horiz-adv-x="184" 
d="M53 -42l119 573h60l-123 -593q-25 -122 -140 -122q-19 0 -32 3l10 50q21 -3 23 -3q33 0 52.5 19.5t30.5 72.5z" />
    <glyph glyph-name="dotlessj" unicode="&#xfb0f;" horiz-adv-x="184" 
d="M53 -42l119 573h60l-123 -593q-25 -122 -140 -122q-19 0 -32 3l10 50q21 -3 23 -3q33 0 52.5 19.5t30.5 72.5z" />
    <glyph glyph-name="uniF8FF" unicode="&#xf8ff;" horiz-adv-x="512" 
d="M222 117h56v67h-56v-67zM225 234h46q0 52 6 72q6 19 43 52q37 34 50 60t13 60q0 59 -35 95t-89 36q-56 0 -92 -34t-43 -103l50 -8q11 95 82 95q31 0 53.5 -24.5t22.5 -60.5q0 -20 -9.5 -37t-40.5 -46q-31 -31 -46 -59q-13 -25 -13 -81zM462 50h-412v617h412v-617z
M512 718h-512v-718h512v718z" />
    <glyph glyph-name="commaaccent.alt" horiz-adv-x="240" 
d="M302 714l-19 -92h-65l17 84q13 65 80 69l-5 -23q-12 -4 -17 -7t-10 -10t-8 -21h27z" />
    <glyph glyph-name="caron.alt" horiz-adv-x="186" 
d="M260 714h67l-79 -141h-42z" />
    <glyph glyph-name="grave.cap" horiz-adv-x="186" 
d="M141 739h71l46 -141h-48z" />
    <glyph glyph-name="acute.cap" horiz-adv-x="186" 
d="M276 739h71l-127 -141h-48z" />
    <glyph glyph-name="circumflex.cap" horiz-adv-x="186" 
d="M149 598h-60l125 141h60l67 -141h-60l-46 100z" />
    <glyph glyph-name="caron.cap" horiz-adv-x="186" 
d="M117 739h60l46 -101l88 101h60l-127 -141h-60z" />
    <glyph glyph-name="tilde.cap" horiz-adv-x="186" 
d="M330 719h44q-9 -35 -37 -66.5t-61 -31.5q-25 0 -45 15l-34 21q-14 8 -22 8q-13 0 -26 -14.5t-20 -33.5h-44q8 34 37 66t59 32q25 0 53 -18l23 -15q14 -11 28 -11q16 0 29 16.5t16 31.5z" />
    <glyph glyph-name="dieresis.cap" horiz-adv-x="186" 
d="M264 617l21 102h60l-21 -102h-60zM114 617l21 102h60l-21 -102h-60z" />
    <glyph glyph-name="macron.cap" horiz-adv-x="186" 
d="M106 646l9 44h238l-9 -44h-238z" />
    <glyph glyph-name="breve.cap" horiz-adv-x="186" 
d="M120 729h44q-3 -35 14 -58q17 -20 47 -20q31 0 56 20.5t37 57.5h44q-15 -56 -54.5 -89t-91.5 -33t-78 33t-18 89z" />
    <glyph glyph-name="ring.cap" horiz-adv-x="186" 
d="M173 684q-5 -25 8.5 -42t38.5 -17t45.5 17t25.5 42t-8.5 42t-38.5 17t-45.5 -17t-25.5 -42zM137 684q8 40 41 66t77 26q37 0 58.5 -27t13.5 -65q-8 -41 -41.5 -66.5t-76.5 -25.5q-37 0 -58.5 27t-13.5 65z" />
    <glyph glyph-name="hungarumlaut.cap" horiz-adv-x="186" 
d="M351 739h71l-127 -141h-47zM200 739h71l-127 -141h-47z" />
    <glyph glyph-name="dotaccent.cap" horiz-adv-x="186" 
d="M189 617l21 102h60l-21 -102h-60z" />
    </font>
</defs>
</svg>
